# https://github.com/mikedh/trimesh

o Frame
v -0.92500000 -0.31000000 0.26000000
v -0.92500000 -0.31000000 0.98000000
v -0.92500000 0.31000000 0.26000000
v -0.92500000 0.31000000 0.98000000
v 0.62500000 -0.31000000 0.26000000
v 0.62500000 -0.31000000 0.98000000
v 0.62500000 0.31000000 0.26000000
v 0.62500000 0.31000000 0.98000000
f 2 4 1
f 5 2 1
f 1 4 3
f 3 5 1
f 2 8 4
f 6 2 5
f 6 8 2
f 4 8 3
f 7 5 3
f 3 8 7
f 7 6 5
f 8 6 7

o Frame_Upper
v -0.79500000 -0.33000000 0.90000000
v -0.79500000 -0.33000000 1.18000000
v -0.79500000 0.33000000 0.90000000
v -0.79500000 0.33000000 1.18000000
v 0.85500000 -0.33000000 0.90000000
v 0.85500000 -0.33000000 1.18000000
v 0.85500000 0.33000000 0.90000000
v 0.85500000 0.33000000 1.18000000
f 10 12 9
f 13 10 9
f 9 12 11
f 11 13 9
f 10 16 12
f 14 10 13
f 14 16 10
f 12 16 11
f 15 13 11
f 11 16 15
f 15 14 13
f 16 14 15

o Slide
v -0.43000000 -0.31000000 1.11500000
v -0.43000000 -0.31000000 1.56500000
v -0.43000000 0.31000000 1.11500000
v -0.43000000 0.31000000 1.56500000
v 1.79000000 -0.31000000 1.11500000
v 1.79000000 -0.31000000 1.56500000
v 1.79000000 0.31000000 1.11500000
v 1.79000000 0.31000000 1.56500000
f 18 20 17
f 21 18 17
f 17 20 19
f 19 21 17
f 18 24 20
f 22 18 21
f 22 24 18
f 20 24 19
f 23 21 19
f 19 24 23
f 23 22 21
f 24 22 23

o Slide_Top
v -0.09000000 -0.28000000 1.54000000
v -0.09000000 -0.28000000 1.70000000
v -0.09000000 0.28000000 1.54000000
v -0.09000000 0.28000000 1.70000000
v 1.53000000 -0.28000000 1.54000000
v 1.53000000 -0.28000000 1.70000000
v 1.53000000 0.28000000 1.54000000
v 1.53000000 0.28000000 1.70000000
f 26 28 25
f 29 26 25
f 25 28 27
f 27 29 25
f 26 32 28
f 30 26 29
f 30 32 26
f 28 32 27
f 31 29 27
f 27 32 31
f 31 30 29
f 32 30 31

o Slide_Rear
v -0.48500000 -0.32000000 1.09000000
v -0.48500000 -0.32000000 1.59000000
v -0.48500000 0.32000000 1.09000000
v -0.48500000 0.32000000 1.59000000
v -0.21500000 -0.32000000 1.09000000
v -0.21500000 -0.32000000 1.59000000
v -0.21500000 0.32000000 1.09000000
v -0.21500000 0.32000000 1.59000000
f 34 36 33
f 37 34 33
f 33 36 35
f 35 37 33
f 34 40 36
f 38 34 37
f 38 40 34
f 36 40 35
f 39 37 35
f 35 40 39
f 39 38 37
f 40 38 39

o Slide_Cut_0
v 0.07000000 -0.33000000 1.20000000
v 0.07000000 -0.33000000 1.50000000
v 0.07000000 0.33000000 1.20000000
v 0.07000000 0.33000000 1.50000000
v 0.13000000 -0.33000000 1.20000000
v 0.13000000 -0.33000000 1.50000000
v 0.13000000 0.33000000 1.20000000
v 0.13000000 0.33000000 1.50000000
f 42 44 41
f 45 42 41
f 41 44 43
f 43 45 41
f 42 48 44
f 46 42 45
f 46 48 42
f 44 48 43
f 47 45 43
f 43 48 47
f 47 46 45
f 48 46 47

o Slide_Cut_1
v 0.22000000 -0.33000000 1.20000000
v 0.22000000 -0.33000000 1.50000000
v 0.22000000 0.33000000 1.20000000
v 0.22000000 0.33000000 1.50000000
v 0.28000000 -0.33000000 1.20000000
v 0.28000000 -0.33000000 1.50000000
v 0.28000000 0.33000000 1.20000000
v 0.28000000 0.33000000 1.50000000
f 50 52 49
f 53 50 49
f 49 52 51
f 51 53 49
f 50 56 52
f 54 50 53
f 54 56 50
f 52 56 51
f 55 53 51
f 51 56 55
f 55 54 53
f 56 54 55

o Slide_Cut_2
v 0.37000000 -0.33000000 1.20000000
v 0.37000000 -0.33000000 1.50000000
v 0.37000000 0.33000000 1.20000000
v 0.37000000 0.33000000 1.50000000
v 0.43000000 -0.33000000 1.20000000
v 0.43000000 -0.33000000 1.50000000
v 0.43000000 0.33000000 1.20000000
v 0.43000000 0.33000000 1.50000000
f 58 60 57
f 61 58 57
f 57 60 59
f 59 61 57
f 58 64 60
f 62 58 61
f 62 64 58
f 60 64 59
f 63 61 59
f 59 64 63
f 63 62 61
f 64 62 63

o Barrel
v 0.14500000 0.00000000 1.40000000
v 0.14500000 0.00000000 1.24000000
v 1.89500000 0.00000000 1.24000000
v 1.89500000 0.00000000 1.40000000
v 0.14500000 0.04141105 1.24545187
v 1.89500000 0.04141105 1.24545187
v 0.14500000 0.08000000 1.26143594
v 1.89500000 0.08000000 1.26143594
v 0.14500000 0.11313708 1.28686292
v 1.89500000 0.11313708 1.28686292
v 0.14500000 0.13856406 1.32000000
v 1.89500000 0.13856406 1.32000000
v 0.14500000 0.15454813 1.35858895
v 1.89500000 0.15454813 1.35858895
v 0.14500000 0.16000000 1.40000000
v 1.89500000 0.16000000 1.40000000
v 0.14500000 0.15454813 1.44141105
v 1.89500000 0.15454813 1.44141105
v 0.14500000 0.13856406 1.48000000
v 1.89500000 0.13856406 1.48000000
v 0.14500000 0.11313708 1.51313708
v 1.89500000 0.11313708 1.51313708
v 0.14500000 0.08000000 1.53856406
v 1.89500000 0.08000000 1.53856406
v 0.14500000 0.04141105 1.55454813
v 1.89500000 0.04141105 1.55454813
v 0.14500000 0.00000000 1.56000000
v 1.89500000 0.00000000 1.56000000
v 0.14500000 -0.04141105 1.55454813
v 1.89500000 -0.04141105 1.55454813
v 0.14500000 -0.08000000 1.53856406
v 1.89500000 -0.08000000 1.53856406
v 0.14500000 -0.11313708 1.51313708
v 1.89500000 -0.11313708 1.51313708
v 0.14500000 -0.13856406 1.48000000
v 1.89500000 -0.13856406 1.48000000
v 0.14500000 -0.15454813 1.44141105
v 1.89500000 -0.15454813 1.44141105
v 0.14500000 -0.16000000 1.40000000
v 1.89500000 -0.16000000 1.40000000
v 0.14500000 -0.15454813 1.35858895
v 1.89500000 -0.15454813 1.35858895
v 0.14500000 -0.13856406 1.32000000
v 1.89500000 -0.13856406 1.32000000
v 0.14500000 -0.11313708 1.28686292
v 1.89500000 -0.11313708 1.28686292
v 0.14500000 -0.08000000 1.26143594
v 1.89500000 -0.08000000 1.26143594
v 0.14500000 -0.04141105 1.24545187
v 1.89500000 -0.04141105 1.24545187
f 66 65 69
f 66 69 67
f 67 69 70
f 67 70 68
f 69 65 71
f 69 71 70
f 70 71 72
f 70 72 68
f 71 65 73
f 71 73 72
f 72 73 74
f 72 74 68
f 73 65 75
f 73 75 74
f 74 75 76
f 74 76 68
f 75 65 77
f 75 77 76
f 76 77 78
f 76 78 68
f 77 65 79
f 77 79 78
f 78 79 80
f 78 80 68
f 79 65 81
f 79 81 80
f 80 81 82
f 80 82 68
f 81 65 83
f 81 83 82
f 82 83 84
f 82 84 68
f 83 65 85
f 83 85 84
f 84 85 86
f 84 86 68
f 85 65 87
f 85 87 86
f 86 87 88
f 86 88 68
f 87 65 89
f 87 89 88
f 88 89 90
f 88 90 68
f 89 65 91
f 89 91 90
f 90 91 92
f 90 92 68
f 91 65 93
f 91 93 92
f 92 93 94
f 92 94 68
f 93 65 95
f 93 95 94
f 94 95 96
f 94 96 68
f 95 65 97
f 95 97 96
f 96 97 98
f 96 98 68
f 97 65 99
f 97 99 98
f 98 99 100
f 98 100 68
f 99 65 101
f 99 101 100
f 100 101 102
f 100 102 68
f 101 65 103
f 101 103 102
f 102 103 104
f 102 104 68
f 103 65 105
f 103 105 104
f 104 105 106
f 104 106 68
f 105 65 107
f 105 107 106
f 106 107 108
f 106 108 68
f 107 65 109
f 107 109 108
f 108 109 110
f 108 110 68
f 109 65 111
f 109 111 110
f 110 111 112
f 110 112 68
f 111 65 113
f 111 113 112
f 112 113 114
f 112 114 68
f 113 65 66
f 113 66 114
f 114 66 67
f 114 67 68

o Muzzle
v 1.79500000 0.00000000 1.40000000
v 1.79500000 0.00000000 1.13000000
v 2.04500000 0.00000000 1.13000000
v 2.04500000 0.00000000 1.40000000
v 1.79500000 0.06988114 1.13920003
v 2.04500000 0.06988114 1.13920003
v 1.79500000 0.13500000 1.16617314
v 2.04500000 0.13500000 1.16617314
v 1.79500000 0.19091883 1.20908117
v 2.04500000 0.19091883 1.20908117
v 1.79500000 0.23382686 1.26500000
v 2.04500000 0.23382686 1.26500000
v 1.79500000 0.26079997 1.33011886
v 2.04500000 0.26079997 1.33011886
v 1.79500000 0.27000000 1.40000000
v 2.04500000 0.27000000 1.40000000
v 1.79500000 0.26079997 1.46988114
v 2.04500000 0.26079997 1.46988114
v 1.79500000 0.23382686 1.53500000
v 2.04500000 0.23382686 1.53500000
v 1.79500000 0.19091883 1.59091883
v 2.04500000 0.19091883 1.59091883
v 1.79500000 0.13500000 1.63382686
v 2.04500000 0.13500000 1.63382686
v 1.79500000 0.06988114 1.66079997
v 2.04500000 0.06988114 1.66079997
v 1.79500000 0.00000000 1.67000000
v 2.04500000 0.00000000 1.67000000
v 1.79500000 -0.06988114 1.66079997
v 2.04500000 -0.06988114 1.66079997
v 1.79500000 -0.13500000 1.63382686
v 2.04500000 -0.13500000 1.63382686
v 1.79500000 -0.19091883 1.59091883
v 2.04500000 -0.19091883 1.59091883
v 1.79500000 -0.23382686 1.53500000
v 2.04500000 -0.23382686 1.53500000
v 1.79500000 -0.26079997 1.46988114
v 2.04500000 -0.26079997 1.46988114
v 1.79500000 -0.27000000 1.40000000
v 2.04500000 -0.27000000 1.40000000
v 1.79500000 -0.26079997 1.33011886
v 2.04500000 -0.26079997 1.33011886
v 1.79500000 -0.23382686 1.26500000
v 2.04500000 -0.23382686 1.26500000
v 1.79500000 -0.19091883 1.20908117
v 2.04500000 -0.19091883 1.20908117
v 1.79500000 -0.13500000 1.16617314
v 2.04500000 -0.13500000 1.16617314
v 1.79500000 -0.06988114 1.13920003
v 2.04500000 -0.06988114 1.13920003
f 116 115 119
f 116 119 117
f 117 119 120
f 117 120 118
f 119 115 121
f 119 121 120
f 120 121 122
f 120 122 118
f 121 115 123
f 121 123 122
f 122 123 124
f 122 124 118
f 123 115 125
f 123 125 124
f 124 125 126
f 124 126 118
f 125 115 127
f 125 127 126
f 126 127 128
f 126 128 118
f 127 115 129
f 127 129 128
f 128 129 130
f 128 130 118
f 129 115 131
f 129 131 130
f 130 131 132
f 130 132 118
f 131 115 133
f 131 133 132
f 132 133 134
f 132 134 118
f 133 115 135
f 133 135 134
f 134 135 136
f 134 136 118
f 135 115 137
f 135 137 136
f 136 137 138
f 136 138 118
f 137 115 139
f 137 139 138
f 138 139 140
f 138 140 118
f 139 115 141
f 139 141 140
f 140 141 142
f 140 142 118
f 141 115 143
f 141 143 142
f 142 143 144
f 142 144 118
f 143 115 145
f 143 145 144
f 144 145 146
f 144 146 118
f 145 115 147
f 145 147 146
f 146 147 148
f 146 148 118
f 147 115 149
f 147 149 148
f 148 149 150
f 148 150 118
f 149 115 151
f 149 151 150
f 150 151 152
f 150 152 118
f 151 115 153
f 151 153 152
f 152 153 154
f 152 154 118
f 153 115 155
f 153 155 154
f 154 155 156
f 154 156 118
f 155 115 157
f 155 157 156
f 156 157 158
f 156 158 118
f 157 115 159
f 157 159 158
f 158 159 160
f 158 160 118
f 159 115 161
f 159 161 160
f 160 161 162
f 160 162 118
f 161 115 163
f 161 163 162
f 162 163 164
f 162 164 118
f 163 115 116
f 163 116 164
f 164 116 117
f 164 117 118

o Muzzle_Inner
v 1.92500000 0.00000000 1.40000000
v 1.92500000 0.00000000 1.27000000
v 2.19500000 0.00000000 1.27000000
v 2.19500000 0.00000000 1.40000000
v 1.92500000 0.04017221 1.27636265
v 2.19500000 0.04017221 1.27636265
v 1.92500000 0.07641208 1.29482779
v 2.19500000 0.07641208 1.29482779
v 1.92500000 0.10517221 1.32358792
v 2.19500000 0.10517221 1.32358792
v 1.92500000 0.12363735 1.35982779
v 2.19500000 0.12363735 1.35982779
v 1.92500000 0.13000000 1.40000000
v 2.19500000 0.13000000 1.40000000
v 1.92500000 0.12363735 1.44017221
v 2.19500000 0.12363735 1.44017221
v 1.92500000 0.10517221 1.47641208
v 2.19500000 0.10517221 1.47641208
v 1.92500000 0.07641208 1.50517221
v 2.19500000 0.07641208 1.50517221
v 1.92500000 0.04017221 1.52363735
v 2.19500000 0.04017221 1.52363735
v 1.92500000 0.00000000 1.53000000
v 2.19500000 0.00000000 1.53000000
v 1.92500000 -0.04017221 1.52363735
v 2.19500000 -0.04017221 1.52363735
v 1.92500000 -0.07641208 1.50517221
v 2.19500000 -0.07641208 1.50517221
v 1.92500000 -0.10517221 1.47641208
v 2.19500000 -0.10517221 1.47641208
v 1.92500000 -0.12363735 1.44017221
v 2.19500000 -0.12363735 1.44017221
v 1.92500000 -0.13000000 1.40000000
v 2.19500000 -0.13000000 1.40000000
v 1.92500000 -0.12363735 1.35982779
v 2.19500000 -0.12363735 1.35982779
v 1.92500000 -0.10517221 1.32358792
v 2.19500000 -0.10517221 1.32358792
v 1.92500000 -0.07641208 1.29482779
v 2.19500000 -0.07641208 1.29482779
v 1.92500000 -0.04017221 1.27636265
v 2.19500000 -0.04017221 1.27636265
f 166 165 169
f 166 169 167
f 167 169 170
f 167 170 168
f 169 165 171
f 169 171 170
f 170 171 172
f 170 172 168
f 171 165 173
f 171 173 172
f 172 173 174
f 172 174 168
f 173 165 175
f 173 175 174
f 174 175 176
f 174 176 168
f 175 165 177
f 175 177 176
f 176 177 178
f 176 178 168
f 177 165 179
f 177 179 178
f 178 179 180
f 178 180 168
f 179 165 181
f 179 181 180
f 180 181 182
f 180 182 168
f 181 165 183
f 181 183 182
f 182 183 184
f 182 184 168
f 183 165 185
f 183 185 184
f 184 185 186
f 184 186 168
f 185 165 187
f 185 187 186
f 186 187 188
f 186 188 168
f 187 165 189
f 187 189 188
f 188 189 190
f 188 190 168
f 189 165 191
f 189 191 190
f 190 191 192
f 190 192 168
f 191 165 193
f 191 193 192
f 192 193 194
f 192 194 168
f 193 165 195
f 193 195 194
f 194 195 196
f 194 196 168
f 195 165 197
f 195 197 196
f 196 197 198
f 196 198 168
f 197 165 199
f 197 199 198
f 198 199 200
f 198 200 168
f 199 165 201
f 199 201 200
f 200 201 202
f 200 202 168
f 201 165 203
f 201 203 202
f 202 203 204
f 202 204 168
f 203 165 205
f 203 205 204
f 204 205 206
f 204 206 168
f 205 165 166
f 205 166 206
f 206 166 167
f 206 167 168

o Front_Sight
v 1.49000000 -0.06500000 1.57500000
v 1.49000000 -0.06500000 1.82500000
v 1.49000000 0.06500000 1.57500000
v 1.49000000 0.06500000 1.82500000
v 1.61000000 -0.06500000 1.57500000
v 1.61000000 -0.06500000 1.82500000
v 1.61000000 0.06500000 1.57500000
v 1.61000000 0.06500000 1.82500000
f 208 210 207
f 211 208 207
f 207 210 209
f 209 211 207
f 208 214 210
f 212 208 211
f 212 214 208
f 210 214 209
f 213 211 209
f 209 214 213
f 213 212 211
f 214 212 213

o Rear_Sight
v -0.52000000 -0.22000000 1.58000000
v -0.52000000 -0.22000000 1.76000000
v -0.52000000 0.22000000 1.58000000
v -0.52000000 0.22000000 1.76000000
v -0.32000000 -0.22000000 1.58000000
v -0.32000000 -0.22000000 1.76000000
v -0.32000000 0.22000000 1.58000000
v -0.32000000 0.22000000 1.76000000
f 216 218 215
f 219 216 215
f 215 218 217
f 217 219 215
f 216 222 218
f 220 216 219
f 220 222 216
f 218 222 217
f 221 219 217
f 217 222 221
f 221 220 219
f 222 220 221

o Grip_Core
v -0.72673367 -0.31000000 -1.27335830
v -1.15009699 -0.31000000 0.42465922
v -0.72673367 0.31000000 -1.27335830
v -1.15009699 0.31000000 0.42465922
v 0.03009699 -0.31000000 -1.08465922
v -0.39326633 -0.31000000 0.61335830
v 0.03009699 0.31000000 -1.08465922
v -0.39326633 0.31000000 0.61335830
f 224 226 223
f 227 224 223
f 223 226 225
f 225 227 223
f 224 230 226
f 228 224 227
f 228 230 224
f 226 230 225
f 229 227 225
f 225 230 229
f 229 228 227
f 230 228 229

o Grip_Backstrap
v -0.84107284 -0.33500000 -1.10013173
v -1.23298631 -0.33500000 0.47174735
v -0.84107284 0.33500000 -1.10013173
v -1.23298631 0.33500000 0.47174735
v -0.64701369 -0.33500000 -1.05174735
v -1.03892716 -0.33500000 0.52013173
v -0.64701369 0.33500000 -1.05174735
v -1.03892716 0.33500000 0.52013173
f 232 234 231
f 235 232 231
f 231 234 233
f 233 235 231
f 232 238 234
f 236 232 235
f 236 238 232
f 234 238 233
f 237 235 233
f 233 238 237
f 237 236 235
f 238 236 237

o Grip_Panel_L
v -0.63232444 -0.36000000 -1.03632962
v -0.96133821 -0.36000000 0.28327257
v -0.63232444 -0.30000000 -1.03632962
v -0.96133821 -0.30000000 0.28327257
v -0.09866179 -0.36000000 -0.90327257
v -0.42767556 -0.36000000 0.41632962
v -0.09866179 -0.30000000 -0.90327257
v -0.42767556 -0.30000000 0.41632962
f 240 242 239
f 243 240 239
f 239 242 241
f 241 243 239
f 240 246 242
f 244 240 243
f 244 246 240
f 242 246 241
f 245 243 241
f 241 246 245
f 245 244 243
f 246 244 245

o Grip_Panel_R
v -0.63232444 0.30000000 -1.03632962
v -0.96133821 0.30000000 0.28327257
v -0.63232444 0.36000000 -1.03632962
v -0.96133821 0.36000000 0.28327257
v -0.09866179 0.30000000 -0.90327257
v -0.42767556 0.30000000 0.41632962
v -0.09866179 0.36000000 -0.90327257
v -0.42767556 0.36000000 0.41632962
f 248 250 247
f 251 248 247
f 247 250 249
f 249 251 247
f 248 254 250
f 252 248 251
f 252 254 248
f 250 254 249
f 253 251 249
f 249 254 253
f 253 252 251
f 254 252 253

o Grip_Rib_0
v -0.79804326 -0.36000000 -0.91987987
v -0.80651052 -0.36000000 -0.88591952
v -0.79804326 0.36000000 -0.91987987
v -0.80651052 0.36000000 -0.88591952
v -0.29348948 -0.36000000 -0.79408048
v -0.30195674 -0.36000000 -0.76012013
v -0.29348948 0.36000000 -0.79408048
v -0.30195674 0.36000000 -0.76012013
f 256 258 255
f 259 256 255
f 255 258 257
f 257 259 255
f 256 262 258
f 260 256 259
f 260 262 256
f 258 262 257
f 261 259 257
f 257 262 261
f 261 260 259
f 262 260 261

o Grip_Rib_1
v -0.79804326 -0.36000000 -0.77130844
v -0.80651052 -0.36000000 -0.73734809
v -0.79804326 0.36000000 -0.77130844
v -0.80651052 0.36000000 -0.73734809
v -0.29348948 -0.36000000 -0.64550905
v -0.30195674 -0.36000000 -0.61154870
v -0.29348948 0.36000000 -0.64550905
v -0.30195674 0.36000000 -0.61154870
f 264 266 263
f 267 264 263
f 263 266 265
f 265 267 263
f 264 270 266
f 268 264 267
f 268 270 264
f 266 270 265
f 269 267 265
f 265 270 269
f 269 268 267
f 270 268 269

o Grip_Rib_2
v -0.79804326 -0.36000000 -0.62273701
v -0.80651052 -0.36000000 -0.58877666
v -0.79804326 0.36000000 -0.62273701
v -0.80651052 0.36000000 -0.58877666
v -0.29348948 -0.36000000 -0.49693763
v -0.30195674 -0.36000000 -0.46297727
v -0.29348948 0.36000000 -0.49693763
v -0.30195674 0.36000000 -0.46297727
f 272 274 271
f 275 272 271
f 271 274 273
f 273 275 271
f 272 278 274
f 276 272 275
f 276 278 272
f 274 278 273
f 277 275 273
f 273 278 277
f 277 276 275
f 278 276 277

o Grip_Rib_3
v -0.79804326 -0.36000000 -0.47416558
v -0.80651052 -0.36000000 -0.44020523
v -0.79804326 0.36000000 -0.47416558
v -0.80651052 0.36000000 -0.44020523
v -0.29348948 -0.36000000 -0.34836620
v -0.30195674 -0.36000000 -0.31440585
v -0.29348948 0.36000000 -0.34836620
v -0.30195674 0.36000000 -0.31440585
f 280 282 279
f 283 280 279
f 279 282 281
f 281 283 279
f 280 286 282
f 284 280 283
f 284 286 280
f 282 286 281
f 285 283 281
f 281 286 285
f 285 284 283
f 286 284 285

o Grip_Rib_4
v -0.79804326 -0.36000000 -0.32559415
v -0.80651052 -0.36000000 -0.29163380
v -0.79804326 0.36000000 -0.32559415
v -0.80651052 0.36000000 -0.29163380
v -0.29348948 -0.36000000 -0.19979477
v -0.30195674 -0.36000000 -0.16583442
v -0.29348948 0.36000000 -0.19979477
v -0.30195674 0.36000000 -0.16583442
f 288 290 287
f 291 288 287
f 287 290 289
f 289 291 287
f 288 294 290
f 292 288 291
f 292 294 288
f 290 294 289
f 293 291 289
f 289 294 293
f 293 292 291
f 294 292 293

o Grip_Rib_5
v -0.79804326 -0.36000000 -0.17702273
v -0.80651052 -0.36000000 -0.14306237
v -0.79804326 0.36000000 -0.17702273
v -0.80651052 0.36000000 -0.14306237
v -0.29348948 -0.36000000 -0.05122334
v -0.30195674 -0.36000000 -0.01726299
v -0.29348948 0.36000000 -0.05122334
v -0.30195674 0.36000000 -0.01726299
f 296 298 295
f 299 296 295
f 295 298 297
f 297 299 295
f 296 302 298
f 300 296 299
f 300 302 296
f 298 302 297
f 301 299 297
f 297 302 301
f 301 300 299
f 302 300 301

o Grip_Rib_6
v -0.79804326 -0.36000000 -0.02845130
v -0.80651052 -0.36000000 0.00550905
v -0.79804326 0.36000000 -0.02845130
v -0.80651052 0.36000000 0.00550905
v -0.29348948 -0.36000000 0.09734809
v -0.30195674 -0.36000000 0.13130844
v -0.29348948 0.36000000 0.09734809
v -0.30195674 0.36000000 0.13130844
f 304 306 303
f 307 304 303
f 303 306 305
f 305 307 303
f 304 310 306
f 308 304 307
f 308 310 304
f 306 310 305
f 309 307 305
f 305 310 309
f 309 308 307
f 310 308 309

o Grip_Rib_7
v -0.79804326 -0.36000000 0.12012013
v -0.80651052 -0.36000000 0.15408048
v -0.79804326 0.36000000 0.12012013
v -0.80651052 0.36000000 0.15408048
v -0.29348948 -0.36000000 0.24591952
v -0.30195674 -0.36000000 0.27987987
v -0.29348948 0.36000000 0.24591952
v -0.30195674 0.36000000 0.27987987
f 312 314 311
f 315 312 311
f 311 314 313
f 313 315 311
f 312 318 314
f 316 312 315
f 316 318 312
f 314 318 313
f 317 315 313
f 313 318 317
f 317 316 315
f 318 316 317

o Trigger
v -0.13000000 -0.09000000 0.17000000
v -0.13000000 -0.09000000 0.59000000
v -0.13000000 0.09000000 0.17000000
v -0.13000000 0.09000000 0.59000000
v 0.03000000 -0.09000000 0.17000000
v 0.03000000 -0.09000000 0.59000000
v 0.03000000 0.09000000 0.17000000
v 0.03000000 0.09000000 0.59000000
f 320 322 319
f 323 320 319
f 319 322 321
f 321 323 319
f 320 326 322
f 324 320 323
f 324 326 320
f 322 326 321
f 325 323 321
f 321 326 325
f 325 324 323
f 326 324 325

o Trigger_Guard
v 0.31500000 0.00000000 0.48000000
v 0.29889087 0.00000000 0.51889087
v 0.26000000 0.00000000 0.53500000
v 0.22110913 0.00000000 0.51889087
v 0.20500000 0.00000000 0.48000000
v 0.22110913 0.00000000 0.44110913
v 0.26000000 0.00000000 0.42500000
v 0.29889087 0.00000000 0.44110913
v 0.30085922 0.10740990 0.48000000
v 0.28529900 0.10324055 0.51889087
v 0.24773330 0.09317486 0.53500000
v 0.21016760 0.08310916 0.51889087
v 0.19460738 0.07893981 0.48000000
v 0.21016760 0.08310916 0.44110913
v 0.24773330 0.09317486 0.42500000
v 0.28529900 0.10324055 0.44110913
v 0.25940054 0.20750000 0.48000000
v 0.24544963 0.19944544 0.51889087
v 0.21176915 0.18000000 0.53500000
v 0.17808866 0.16055456 0.51889087
v 0.16413775 0.15250000 0.48000000
v 0.17808866 0.16055456 0.44110913
v 0.21176915 0.18000000 0.42500000
v 0.24544963 0.19944544 0.44110913
v 0.19344931 0.29344931 0.48000000
v 0.18205844 0.28205844 0.51889087
v 0.15455844 0.25455844 0.53500000
v 0.12705844 0.22705844 0.51889087
v 0.11566757 0.21566757 0.48000000
v 0.12705844 0.22705844 0.44110913
v 0.15455844 0.25455844 0.42500000
v 0.18205844 0.28205844 0.44110913
v 0.10750000 0.35940054 0.48000000
v 0.09944544 0.34544963 0.51889087
v 0.08000000 0.31176915 0.53500000
v 0.06055456 0.27808866 0.51889087
v 0.05250000 0.26413775 0.48000000
v 0.06055456 0.27808866 0.44110913
v 0.08000000 0.31176915 0.42500000
v 0.09944544 0.34544963 0.44110913
v 0.00740990 0.40085922 0.48000000
v 0.00324055 0.38529900 0.51889087
v -0.00682514 0.34773330 0.53500000
v -0.01689084 0.31016760 0.51889087
v -0.02106019 0.29460738 0.48000000
v -0.01689084 0.31016760 0.44110913
v -0.00682514 0.34773330 0.42500000
v 0.00324055 0.38529900 0.44110913
v -0.10000000 0.41500000 0.48000000
v -0.10000000 0.39889087 0.51889087
v -0.10000000 0.36000000 0.53500000
v -0.10000000 0.32110913 0.51889087
v -0.10000000 0.30500000 0.48000000
v -0.10000000 0.32110913 0.44110913
v -0.10000000 0.36000000 0.42500000
v -0.10000000 0.39889087 0.44110913
v -0.20740990 0.40085922 0.48000000
v -0.20324055 0.38529900 0.51889087
v -0.19317486 0.34773330 0.53500000
v -0.18310916 0.31016760 0.51889087
v -0.17893981 0.29460738 0.48000000
v -0.18310916 0.31016760 0.44110913
v -0.19317486 0.34773330 0.42500000
v -0.20324055 0.38529900 0.44110913
v -0.30750000 0.35940054 0.48000000
v -0.29944544 0.34544963 0.51889087
v -0.28000000 0.31176915 0.53500000
v -0.26055456 0.27808866 0.51889087
v -0.25250000 0.26413775 0.48000000
v -0.26055456 0.27808866 0.44110913
v -0.28000000 0.31176915 0.42500000
v -0.29944544 0.34544963 0.44110913
v -0.39344931 0.29344931 0.48000000
v -0.38205844 0.28205844 0.51889087
v -0.35455844 0.25455844 0.53500000
v -0.32705844 0.22705844 0.51889087
v -0.31566757 0.21566757 0.48000000
v -0.32705844 0.22705844 0.44110913
v -0.35455844 0.25455844 0.42500000
v -0.38205844 0.28205844 0.44110913
v -0.45940054 0.20750000 0.48000000
v -0.44544963 0.19944544 0.51889087
v -0.41176915 0.18000000 0.53500000
v -0.37808866 0.16055456 0.51889087
v -0.36413775 0.15250000 0.48000000
v -0.37808866 0.16055456 0.44110913
v -0.41176915 0.18000000 0.42500000
v -0.44544963 0.19944544 0.44110913
v -0.50085922 0.10740990 0.48000000
v -0.48529900 0.10324055 0.51889087
v -0.44773330 0.09317486 0.53500000
v -0.41016760 0.08310916 0.51889087
v -0.39460738 0.07893981 0.48000000
v -0.41016760 0.08310916 0.44110913
v -0.44773330 0.09317486 0.42500000
v -0.48529900 0.10324055 0.44110913
v -0.51500000 0.00000000 0.48000000
v -0.49889087 0.00000000 0.51889087
v -0.46000000 0.00000000 0.53500000
v -0.42110913 0.00000000 0.51889087
v -0.40500000 0.00000000 0.48000000
v -0.42110913 0.00000000 0.44110913
v -0.46000000 0.00000000 0.42500000
v -0.49889087 0.00000000 0.44110913
v -0.50085922 -0.10740990 0.48000000
v -0.48529900 -0.10324055 0.51889087
v -0.44773330 -0.09317486 0.53500000
v -0.41016760 -0.08310916 0.51889087
v -0.39460738 -0.07893981 0.48000000
v -0.41016760 -0.08310916 0.44110913
v -0.44773330 -0.09317486 0.42500000
v -0.48529900 -0.10324055 0.44110913
v -0.45940054 -0.20750000 0.48000000
v -0.44544963 -0.19944544 0.51889087
v -0.41176915 -0.18000000 0.53500000
v -0.37808866 -0.16055456 0.51889087
v -0.36413775 -0.15250000 0.48000000
v -0.37808866 -0.16055456 0.44110913
v -0.41176915 -0.18000000 0.42500000
v -0.44544963 -0.19944544 0.44110913
v -0.39344931 -0.29344931 0.48000000
v -0.38205844 -0.28205844 0.51889087
v -0.35455844 -0.25455844 0.53500000
v -0.32705844 -0.22705844 0.51889087
v -0.31566757 -0.21566757 0.48000000
v -0.32705844 -0.22705844 0.44110913
v -0.35455844 -0.25455844 0.42500000
v -0.38205844 -0.28205844 0.44110913
v -0.30750000 -0.35940054 0.48000000
v -0.29944544 -0.34544963 0.51889087
v -0.28000000 -0.31176915 0.53500000
v -0.26055456 -0.27808866 0.51889087
v -0.25250000 -0.26413775 0.48000000
v -0.26055456 -0.27808866 0.44110913
v -0.28000000 -0.31176915 0.42500000
v -0.29944544 -0.34544963 0.44110913
v -0.20740990 -0.40085922 0.48000000
v -0.20324055 -0.38529900 0.51889087
v -0.19317486 -0.34773330 0.53500000
v -0.18310916 -0.31016760 0.51889087
v -0.17893981 -0.29460738 0.48000000
v -0.18310916 -0.31016760 0.44110913
v -0.19317486 -0.34773330 0.42500000
v -0.20324055 -0.38529900 0.44110913
v -0.10000000 -0.41500000 0.48000000
v -0.10000000 -0.39889087 0.51889087
v -0.10000000 -0.36000000 0.53500000
v -0.10000000 -0.32110913 0.51889087
v -0.10000000 -0.30500000 0.48000000
v -0.10000000 -0.32110913 0.44110913
v -0.10000000 -0.36000000 0.42500000
v -0.10000000 -0.39889087 0.44110913
v 0.00740990 -0.40085922 0.48000000
v 0.00324055 -0.38529900 0.51889087
v -0.00682514 -0.34773330 0.53500000
v -0.01689084 -0.31016760 0.51889087
v -0.02106019 -0.29460738 0.48000000
v -0.01689084 -0.31016760 0.44110913
v -0.00682514 -0.34773330 0.42500000
v 0.00324055 -0.38529900 0.44110913
v 0.10750000 -0.35940054 0.48000000
v 0.09944544 -0.34544963 0.51889087
v 0.08000000 -0.31176915 0.53500000
v 0.06055456 -0.27808866 0.51889087
v 0.05250000 -0.26413775 0.48000000
v 0.06055456 -0.27808866 0.44110913
v 0.08000000 -0.31176915 0.42500000
v 0.09944544 -0.34544963 0.44110913
v 0.19344931 -0.29344931 0.48000000
v 0.18205844 -0.28205844 0.51889087
v 0.15455844 -0.25455844 0.53500000
v 0.12705844 -0.22705844 0.51889087
v 0.11566757 -0.21566757 0.48000000
v 0.12705844 -0.22705844 0.44110913
v 0.15455844 -0.25455844 0.42500000
v 0.18205844 -0.28205844 0.44110913
v 0.25940054 -0.20750000 0.48000000
v 0.24544963 -0.19944544 0.51889087
v 0.21176915 -0.18000000 0.53500000
v 0.17808866 -0.16055456 0.51889087
v 0.16413775 -0.15250000 0.48000000
v 0.17808866 -0.16055456 0.44110913
v 0.21176915 -0.18000000 0.42500000
v 0.24544963 -0.19944544 0.44110913
v 0.30085922 -0.10740990 0.48000000
v 0.28529900 -0.10324055 0.51889087
v 0.24773330 -0.09317486 0.53500000
v 0.21016760 -0.08310916 0.51889087
v 0.19460738 -0.07893981 0.48000000
v 0.21016760 -0.08310916 0.44110913
v 0.24773330 -0.09317486 0.42500000
v 0.28529900 -0.10324055 0.44110913
f 327 335 328
f 328 335 336
f 328 336 329
f 329 336 337
f 329 337 330
f 330 337 338
f 330 338 331
f 331 338 339
f 331 339 332
f 332 339 340
f 332 340 333
f 333 340 341
f 333 341 334
f 334 341 342
f 334 342 327
f 327 342 335
f 335 343 336
f 336 343 344
f 336 344 337
f 337 344 345
f 337 345 338
f 338 345 346
f 338 346 339
f 339 346 347
f 339 347 340
f 340 347 348
f 340 348 341
f 341 348 349
f 341 349 342
f 342 349 350
f 342 350 335
f 335 350 343
f 343 351 344
f 344 351 352
f 344 352 345
f 345 352 353
f 345 353 346
f 346 353 354
f 346 354 347
f 347 354 355
f 347 355 348
f 348 355 356
f 348 356 349
f 349 356 357
f 349 357 350
f 350 357 358
f 350 358 343
f 343 358 351
f 351 359 352
f 352 359 360
f 352 360 353
f 353 360 361
f 353 361 354
f 354 361 362
f 354 362 355
f 355 362 363
f 355 363 356
f 356 363 364
f 356 364 357
f 357 364 365
f 357 365 358
f 358 365 366
f 358 366 351
f 351 366 359
f 359 367 360
f 360 367 368
f 360 368 361
f 361 368 369
f 361 369 362
f 362 369 370
f 362 370 363
f 363 370 371
f 363 371 364
f 364 371 372
f 364 372 365
f 365 372 373
f 365 373 366
f 366 373 374
f 366 374 359
f 359 374 367
f 367 375 368
f 368 375 376
f 368 376 369
f 369 376 377
f 369 377 370
f 370 377 378
f 370 378 371
f 371 378 379
f 371 379 372
f 372 379 380
f 372 380 373
f 373 380 381
f 373 381 374
f 374 381 382
f 374 382 367
f 367 382 375
f 375 383 376
f 376 383 384
f 376 384 377
f 377 384 385
f 377 385 378
f 378 385 386
f 378 386 379
f 379 386 387
f 379 387 380
f 380 387 388
f 380 388 381
f 381 388 389
f 381 389 382
f 382 389 390
f 382 390 375
f 375 390 383
f 383 391 384
f 384 391 392
f 384 392 385
f 385 392 393
f 385 393 386
f 386 393 394
f 386 394 387
f 387 394 395
f 387 395 388
f 388 395 396
f 388 396 389
f 389 396 397
f 389 397 390
f 390 397 398
f 390 398 383
f 383 398 391
f 391 399 392
f 392 399 400
f 392 400 393
f 393 400 401
f 393 401 394
f 394 401 402
f 394 402 395
f 395 402 403
f 395 403 396
f 396 403 404
f 396 404 397
f 397 404 405
f 397 405 398
f 398 405 406
f 398 406 391
f 391 406 399
f 399 407 400
f 400 407 408
f 400 408 401
f 401 408 409
f 401 409 402
f 402 409 410
f 402 410 403
f 403 410 411
f 403 411 404
f 404 411 412
f 404 412 405
f 405 412 413
f 405 413 406
f 406 413 414
f 406 414 399
f 399 414 407
f 407 415 408
f 408 415 416
f 408 416 409
f 409 416 417
f 409 417 410
f 410 417 418
f 410 418 411
f 411 418 419
f 411 419 412
f 412 419 420
f 412 420 413
f 413 420 421
f 413 421 414
f 414 421 422
f 414 422 407
f 407 422 415
f 415 423 416
f 416 423 424
f 416 424 417
f 417 424 425
f 417 425 418
f 418 425 426
f 418 426 419
f 419 426 427
f 419 427 420
f 420 427 428
f 420 428 421
f 421 428 429
f 421 429 422
f 422 429 430
f 422 430 415
f 415 430 423
f 423 431 424
f 424 431 432
f 424 432 425
f 425 432 433
f 425 433 426
f 426 433 434
f 426 434 427
f 427 434 435
f 427 435 428
f 428 435 436
f 428 436 429
f 429 436 437
f 429 437 430
f 430 437 438
f 430 438 423
f 423 438 431
f 431 439 432
f 432 439 440
f 432 440 433
f 433 440 441
f 433 441 434
f 434 441 442
f 434 442 435
f 435 442 443
f 435 443 436
f 436 443 444
f 436 444 437
f 437 444 445
f 437 445 438
f 438 445 446
f 438 446 431
f 431 446 439
f 439 447 440
f 440 447 448
f 440 448 441
f 441 448 449
f 441 449 442
f 442 449 450
f 442 450 443
f 443 450 451
f 443 451 444
f 444 451 452
f 444 452 445
f 445 452 453
f 445 453 446
f 446 453 454
f 446 454 439
f 439 454 447
f 447 455 448
f 448 455 456
f 448 456 449
f 449 456 457
f 449 457 450
f 450 457 458
f 450 458 451
f 451 458 459
f 451 459 452
f 452 459 460
f 452 460 453
f 453 460 461
f 453 461 454
f 454 461 462
f 454 462 447
f 447 462 455
f 455 463 456
f 456 463 464
f 456 464 457
f 457 464 465
f 457 465 458
f 458 465 466
f 458 466 459
f 459 466 467
f 459 467 460
f 460 467 468
f 460 468 461
f 461 468 469
f 461 469 462
f 462 469 470
f 462 470 455
f 455 470 463
f 463 471 464
f 464 471 472
f 464 472 465
f 465 472 473
f 465 473 466
f 466 473 474
f 466 474 467
f 467 474 475
f 467 475 468
f 468 475 476
f 468 476 469
f 469 476 477
f 469 477 470
f 470 477 478
f 470 478 463
f 463 478 471
f 471 479 472
f 472 479 480
f 472 480 473
f 473 480 481
f 473 481 474
f 474 481 482
f 474 482 475
f 475 482 483
f 475 483 476
f 476 483 484
f 476 484 477
f 477 484 485
f 477 485 478
f 478 485 486
f 478 486 471
f 471 486 479
f 479 487 480
f 480 487 488
f 480 488 481
f 481 488 489
f 481 489 482
f 482 489 490
f 482 490 483
f 483 490 491
f 483 491 484
f 484 491 492
f 484 492 485
f 485 492 493
f 485 493 486
f 486 493 494
f 486 494 479
f 479 494 487
f 487 495 488
f 488 495 496
f 488 496 489
f 489 496 497
f 489 497 490
f 490 497 498
f 490 498 491
f 491 498 499
f 491 499 492
f 492 499 500
f 492 500 493
f 493 500 501
f 493 501 494
f 494 501 502
f 494 502 487
f 487 502 495
f 495 503 496
f 496 503 504
f 496 504 497
f 497 504 505
f 497 505 498
f 498 505 506
f 498 506 499
f 499 506 507
f 499 507 500
f 500 507 508
f 500 508 501
f 501 508 509
f 501 509 502
f 502 509 510
f 502 510 495
f 495 510 503
f 503 511 504
f 504 511 512
f 504 512 505
f 505 512 513
f 505 513 506
f 506 513 514
f 506 514 507
f 507 514 515
f 507 515 508
f 508 515 516
f 508 516 509
f 509 516 517
f 509 517 510
f 510 517 518
f 510 518 503
f 503 518 511
f 511 327 512
f 512 327 328
f 512 328 513
f 513 328 329
f 513 329 514
f 514 329 330
f 514 330 515
f 515 330 331
f 515 331 516
f 516 331 332
f 516 332 517
f 517 332 333
f 517 333 518
f 518 333 334
f 518 334 511
f 511 334 327

o Magazine_Base
v -0.94000000 -0.35000000 -1.28000000
v -0.94000000 -0.35000000 -1.12000000
v -0.94000000 0.35000000 -1.28000000
v -0.94000000 0.35000000 -1.12000000
v -0.22000000 -0.35000000 -1.28000000
v -0.22000000 -0.35000000 -1.12000000
v -0.22000000 0.35000000 -1.28000000
v -0.22000000 0.35000000 -1.12000000
f 520 522 519
f 523 520 519
f 519 522 521
f 521 523 519
f 520 526 522
f 524 520 523
f 524 526 520
f 522 526 521
f 525 523 521
f 521 526 525
f 525 524 523
f 526 524 525

o Safety_Switch
v -0.39000000 -0.36000000 0.77000000
v -0.39000000 -0.36000000 0.87000000
v -0.39000000 0.36000000 0.77000000
v -0.39000000 0.36000000 0.87000000
v -0.21000000 -0.36000000 0.77000000
v -0.21000000 -0.36000000 0.87000000
v -0.21000000 0.36000000 0.77000000
v -0.21000000 0.36000000 0.87000000
f 528 530 527
f 531 528 527
f 527 530 529
f 529 531 527
f 528 534 530
f 532 528 531
f 532 534 528
f 530 534 529
f 533 531 529
f 529 534 533
f 533 532 531
f 534 532 533

o Frame_Emblem_L
v -0.12000000 -0.32250000 0.78000000
v 0.02000000 -0.32250000 0.78000000
v 0.02000000 -0.35750000 0.78000000
v -0.12000000 -0.35750000 0.78000000
v 0.01522962 -0.32250000 0.81623467
v 0.01522962 -0.35750000 0.81623467
v 0.00124356 -0.32250000 0.85000000
v 0.00124356 -0.35750000 0.85000000
v -0.02100505 -0.32250000 0.87899495
v -0.02100505 -0.35750000 0.87899495
v -0.05000000 -0.32250000 0.90124356
v -0.05000000 -0.35750000 0.90124356
v -0.08376533 -0.32250000 0.91522962
v -0.08376533 -0.35750000 0.91522962
v -0.12000000 -0.32250000 0.92000000
v -0.12000000 -0.35750000 0.92000000
v -0.15623467 -0.32250000 0.91522962
v -0.15623467 -0.35750000 0.91522962
v -0.19000000 -0.32250000 0.90124356
v -0.19000000 -0.35750000 0.90124356
v -0.21899495 -0.32250000 0.87899495
v -0.21899495 -0.35750000 0.87899495
v -0.24124356 -0.32250000 0.85000000
v -0.24124356 -0.35750000 0.85000000
v -0.25522962 -0.32250000 0.81623467
v -0.25522962 -0.35750000 0.81623467
v -0.26000000 -0.32250000 0.78000000
v -0.26000000 -0.35750000 0.78000000
v -0.25522962 -0.32250000 0.74376533
v -0.25522962 -0.35750000 0.74376533
v -0.24124356 -0.32250000 0.71000000
v -0.24124356 -0.35750000 0.71000000
v -0.21899495 -0.32250000 0.68100505
v -0.21899495 -0.35750000 0.68100505
v -0.19000000 -0.32250000 0.65875644
v -0.19000000 -0.35750000 0.65875644
v -0.15623467 -0.32250000 0.64477038
v -0.15623467 -0.35750000 0.64477038
v -0.12000000 -0.32250000 0.64000000
v -0.12000000 -0.35750000 0.64000000
v -0.08376533 -0.32250000 0.64477038
v -0.08376533 -0.35750000 0.64477038
v -0.05000000 -0.32250000 0.65875644
v -0.05000000 -0.35750000 0.65875644
v -0.02100505 -0.32250000 0.68100505
v -0.02100505 -0.35750000 0.68100505
v 0.00124356 -0.32250000 0.71000000
v 0.00124356 -0.35750000 0.71000000
v 0.01522962 -0.32250000 0.74376533
v 0.01522962 -0.35750000 0.74376533
f 536 535 539
f 536 539 537
f 537 539 540
f 537 540 538
f 539 535 541
f 539 541 540
f 540 541 542
f 540 542 538
f 541 535 543
f 541 543 542
f 542 543 544
f 542 544 538
f 543 535 545
f 543 545 544
f 544 545 546
f 544 546 538
f 545 535 547
f 545 547 546
f 546 547 548
f 546 548 538
f 547 535 549
f 547 549 548
f 548 549 550
f 548 550 538
f 549 535 551
f 549 551 550
f 550 551 552
f 550 552 538
f 551 535 553
f 551 553 552
f 552 553 554
f 552 554 538
f 553 535 555
f 553 555 554
f 554 555 556
f 554 556 538
f 555 535 557
f 555 557 556
f 556 557 558
f 556 558 538
f 557 535 559
f 557 559 558
f 558 559 560
f 558 560 538
f 559 535 561
f 559 561 560
f 560 561 562
f 560 562 538
f 561 535 563
f 561 563 562
f 562 563 564
f 562 564 538
f 563 535 565
f 563 565 564
f 564 565 566
f 564 566 538
f 565 535 567
f 565 567 566
f 566 567 568
f 566 568 538
f 567 535 569
f 567 569 568
f 568 569 570
f 568 570 538
f 569 535 571
f 569 571 570
f 570 571 572
f 570 572 538
f 571 535 573
f 571 573 572
f 572 573 574
f 572 574 538
f 573 535 575
f 573 575 574
f 574 575 576
f 574 576 538
f 575 535 577
f 575 577 576
f 576 577 578
f 576 578 538
f 577 535 579
f 577 579 578
f 578 579 580
f 578 580 538
f 579 535 581
f 579 581 580
f 580 581 582
f 580 582 538
f 581 535 583
f 581 583 582
f 582 583 584
f 582 584 538
f 583 535 536
f 583 536 584
f 584 536 537
f 584 537 538

o Frame_Emblem_R
v -0.12000000 0.35750000 0.78000000
v 0.02000000 0.35750000 0.78000000
v 0.02000000 0.32250000 0.78000000
v -0.12000000 0.32250000 0.78000000
v 0.01522962 0.35750000 0.81623467
v 0.01522962 0.32250000 0.81623467
v 0.00124356 0.35750000 0.85000000
v 0.00124356 0.32250000 0.85000000
v -0.02100505 0.35750000 0.87899495
v -0.02100505 0.32250000 0.87899495
v -0.05000000 0.35750000 0.90124356
v -0.05000000 0.32250000 0.90124356
v -0.08376533 0.35750000 0.91522962
v -0.08376533 0.32250000 0.91522962
v -0.12000000 0.35750000 0.92000000
v -0.12000000 0.32250000 0.92000000
v -0.15623467 0.35750000 0.91522962
v -0.15623467 0.32250000 0.91522962
v -0.19000000 0.35750000 0.90124356
v -0.19000000 0.32250000 0.90124356
v -0.21899495 0.35750000 0.87899495
v -0.21899495 0.32250000 0.87899495
v -0.24124356 0.35750000 0.85000000
v -0.24124356 0.32250000 0.85000000
v -0.25522962 0.35750000 0.81623467
v -0.25522962 0.32250000 0.81623467
v -0.26000000 0.35750000 0.78000000
v -0.26000000 0.32250000 0.78000000
v -0.25522962 0.35750000 0.74376533
v -0.25522962 0.32250000 0.74376533
v -0.24124356 0.35750000 0.71000000
v -0.24124356 0.32250000 0.71000000
v -0.21899495 0.35750000 0.68100505
v -0.21899495 0.32250000 0.68100505
v -0.19000000 0.35750000 0.65875644
v -0.19000000 0.32250000 0.65875644
v -0.15623467 0.35750000 0.64477038
v -0.15623467 0.32250000 0.64477038
v -0.12000000 0.35750000 0.64000000
v -0.12000000 0.32250000 0.64000000
v -0.08376533 0.35750000 0.64477038
v -0.08376533 0.32250000 0.64477038
v -0.05000000 0.35750000 0.65875644
v -0.05000000 0.32250000 0.65875644
v -0.02100505 0.35750000 0.68100505
v -0.02100505 0.32250000 0.68100505
v 0.00124356 0.35750000 0.71000000
v 0.00124356 0.32250000 0.71000000
v 0.01522962 0.35750000 0.74376533
v 0.01522962 0.32250000 0.74376533
f 586 585 589
f 586 589 587
f 587 589 590
f 587 590 588
f 589 585 591
f 589 591 590
f 590 591 592
f 590 592 588
f 591 585 593
f 591 593 592
f 592 593 594
f 592 594 588
f 593 585 595
f 593 595 594
f 594 595 596
f 594 596 588
f 595 585 597
f 595 597 596
f 596 597 598
f 596 598 588
f 597 585 599
f 597 599 598
f 598 599 600
f 598 600 588
f 599 585 601
f 599 601 600
f 600 601 602
f 600 602 588
f 601 585 603
f 601 603 602
f 602 603 604
f 602 604 588
f 603 585 605
f 603 605 604
f 604 605 606
f 604 606 588
f 605 585 607
f 605 607 606
f 606 607 608
f 606 608 588
f 607 585 609
f 607 609 608
f 608 609 610
f 608 610 588
f 609 585 611
f 609 611 610
f 610 611 612
f 610 612 588
f 611 585 613
f 611 613 612
f 612 613 614
f 612 614 588
f 613 585 615
f 613 615 614
f 614 615 616
f 614 616 588
f 615 585 617
f 615 617 616
f 616 617 618
f 616 618 588
f 617 585 619
f 617 619 618
f 618 619 620
f 618 620 588
f 619 585 621
f 619 621 620
f 620 621 622
f 620 622 588
f 621 585 623
f 621 623 622
f 622 623 624
f 622 624 588
f 623 585 625
f 623 625 624
f 624 625 626
f 624 626 588
f 625 585 627
f 625 627 626
f 626 627 628
f 626 628 588
f 627 585 629
f 627 629 628
f 628 629 630
f 628 630 588
f 629 585 631
f 629 631 630
f 630 631 632
f 630 632 588
f 631 585 633
f 631 633 632
f 632 633 634
f 632 634 588
f 633 585 586
f 633 586 634
f 634 586 587
f 634 587 588

