# https://github.com/mikedh/trimesh

o Blade
v -0.52000000 -0.09500000 0.00000000
v -0.34000000 -0.09500000 4.45000000
v 0.00000000 -0.09500000 5.35000000
v 0.34000000 -0.09500000 4.45000000
v 0.52000000 -0.09500000 0.00000000
v -0.52000000 0.09500000 0.00000000
v -0.34000000 0.09500000 4.45000000
v 0.00000000 0.09500000 5.35000000
v 0.34000000 0.09500000 4.45000000
v 0.52000000 0.09500000 0.00000000
f 1 2 3
f 1 3 4
f 1 4 5
f 10 9 8
f 10 8 7
f 10 7 6
f 1 6 7
f 1 7 2
f 2 7 8
f 2 8 3
f 3 8 9
f 3 9 4
f 4 9 10
f 4 10 5
f 5 10 6
f 5 6 1

o Blade_Ridge
v -0.03750000 -0.13000000 0.10000000
v -0.03750000 -0.13000000 4.60000000
v -0.03750000 -0.10000000 0.10000000
v -0.03750000 -0.10000000 4.60000000
v 0.03750000 -0.13000000 0.10000000
v 0.03750000 -0.13000000 4.60000000
v 0.03750000 -0.10000000 0.10000000
v 0.03750000 -0.10000000 4.60000000
f 12 14 11
f 15 12 11
f 11 14 13
f 13 15 11
f 12 18 14
f 16 12 15
f 16 18 12
f 14 18 13
f 17 15 13
f 13 18 17
f 17 16 15
f 18 16 17

o Crossguard
v -1.00000000 -0.15000000 -0.10000000
v -1.00000000 -0.15000000 0.14000000
v -1.00000000 0.15000000 -0.10000000
v -1.00000000 0.15000000 0.14000000
v 1.00000000 -0.15000000 -0.10000000
v 1.00000000 -0.15000000 0.14000000
v 1.00000000 0.15000000 -0.10000000
v 1.00000000 0.15000000 0.14000000
f 20 22 19
f 23 20 19
f 19 22 21
f 21 23 19
f 20 26 22
f 24 20 23
f 24 26 20
f 22 26 21
f 25 23 21
f 21 26 25
f 25 24 23
f 26 24 25

o Guard_Gem_L
v -0.12091816 0.19564969 0.00000000
v 0.12091816 0.19564969 0.00000000
v -0.12091816 -0.19564969 0.00000000
v 0.12091816 -0.19564969 0.00000000
v 0.00000000 -0.12091816 0.19564969
v 0.00000000 0.12091816 0.19564969
v 0.00000000 -0.12091816 -0.19564969
v 0.00000000 0.12091816 -0.19564969
v 0.19564969 0.00000000 -0.12091816
v 0.19564969 0.00000000 0.12091816
v -0.19564969 0.00000000 -0.12091816
v -0.19564969 0.00000000 0.12091816
v 0.00000000 0.23000000 0.00000000
v 0.00000000 -0.23000000 0.00000000
v -0.07107391 -0.18607391 0.11500000
v 0.07107391 -0.18607391 0.11500000
v -0.07107391 0.18607391 0.11500000
v 0.07107391 0.18607391 0.11500000
v 0.00000000 0.00000000 0.23000000
v -0.07107391 -0.18607391 -0.11500000
v 0.07107391 -0.18607391 -0.11500000
v -0.07107391 0.18607391 -0.11500000
v 0.07107391 0.18607391 -0.11500000
v 0.00000000 0.00000000 -0.23000000
v 0.18607391 0.11500000 -0.07107391
v 0.18607391 -0.11500000 -0.07107391
v 0.11500000 -0.07107391 -0.18607391
v 0.11500000 0.07107391 -0.18607391
v 0.18607391 0.11500000 0.07107391
v 0.18607391 -0.11500000 0.07107391
v 0.11500000 -0.07107391 0.18607391
v 0.11500000 0.07107391 0.18607391
v 0.23000000 0.00000000 0.00000000
v -0.18607391 0.11500000 -0.07107391
v -0.18607391 -0.11500000 -0.07107391
v -0.11500000 -0.07107391 -0.18607391
v -0.11500000 0.07107391 -0.18607391
v -0.18607391 0.11500000 0.07107391
v -0.18607391 -0.11500000 0.07107391
v -0.11500000 -0.07107391 0.18607391
v -0.11500000 0.07107391 0.18607391
v -0.23000000 0.00000000 0.00000000
v -0.06285130 0.22124582 0.00000000
v 0.06285130 0.22124582 0.00000000
v -0.06285130 -0.22124582 0.00000000
v 0.06285130 -0.22124582 0.00000000
v -0.09979437 -0.19841375 0.05977514
v -0.03694307 -0.15956951 0.16147068
v -0.03736577 -0.21874300 0.06045908
v 0.09979437 -0.19841375 0.05977514
v 0.03694307 -0.15956951 0.16147068
v 0.03736577 -0.21874300 0.06045908
v 0.00000000 -0.19564969 0.12091816
v -0.09979437 0.19841375 0.05977514
v -0.03694307 0.15956951 0.16147068
v -0.03736577 0.21874300 0.06045908
v 0.09979437 0.19841375 0.05977514
v 0.03694307 0.15956951 0.16147068
v 0.03736577 0.21874300 0.06045908
v 0.00000000 0.19564969 0.12091816
v 0.00000000 -0.06285130 0.22124582
v 0.00000000 0.06285130 0.22124582
v -0.09979437 -0.19841375 -0.05977514
v -0.03694307 -0.15956951 -0.16147068
v -0.03736577 -0.21874300 -0.06045908
v 0.09979437 -0.19841375 -0.05977514
v 0.03694307 -0.15956951 -0.16147068
v 0.03736577 -0.21874300 -0.06045908
v 0.00000000 -0.19564969 -0.12091816
v -0.09979437 0.19841375 -0.05977514
v -0.03694307 0.15956951 -0.16147068
v -0.03736577 0.21874300 -0.06045908
v 0.09979437 0.19841375 -0.05977514
v 0.03694307 0.15956951 -0.16147068
v 0.03736577 0.21874300 -0.06045908
v 0.00000000 0.19564969 -0.12091816
v 0.00000000 -0.06285130 -0.22124582
v 0.00000000 0.06285130 -0.22124582
v 0.15956951 0.16147068 -0.03694307
v 0.19841375 0.05977514 -0.09979437
v 0.13519061 0.15828392 -0.09782484
v 0.15956951 -0.16147068 -0.03694307
v 0.19841375 -0.05977514 -0.09979437
v 0.13519061 -0.15828392 -0.09782484
v 0.05977514 -0.09979437 -0.19841375
v 0.16147068 -0.03694307 -0.15956951
v 0.09782484 -0.13519061 -0.15828392
v 0.06045908 -0.03736577 -0.21874300
v 0.15828392 -0.09782484 -0.13519061
v 0.05977514 0.09979437 -0.19841375
v 0.16147068 0.03694307 -0.15956951
v 0.09782484 0.13519061 -0.15828392
v 0.06045908 0.03736577 -0.21874300
v 0.15828392 0.09782484 -0.13519061
v 0.12091816 0.00000000 -0.19564969
v 0.15956951 0.16147068 0.03694307
v 0.19841375 0.05977514 0.09979437
v 0.13519061 0.15828392 0.09782484
v 0.19564969 0.12091816 0.00000000
v 0.15956951 -0.16147068 0.03694307
v 0.19841375 -0.05977514 0.09979437
v 0.13519061 -0.15828392 0.09782484
v 0.19564969 -0.12091816 0.00000000
v 0.05977514 -0.09979437 0.19841375
v 0.16147068 -0.03694307 0.15956951
v 0.09782484 -0.13519061 0.15828392
v 0.06045908 -0.03736577 0.21874300
v 0.15828392 -0.09782484 0.13519061
v 0.05977514 0.09979437 0.19841375
v 0.16147068 0.03694307 0.15956951
v 0.09782484 0.13519061 0.15828392
v 0.06045908 0.03736577 0.21874300
v 0.15828392 0.09782484 0.13519061
v 0.12091816 0.00000000 0.19564969
v 0.22124582 0.00000000 -0.06285130
v 0.22124582 0.00000000 0.06285130
v 0.21874300 0.06045908 -0.03736577
v 0.21874300 -0.06045908 -0.03736577
v 0.21874300 0.06045908 0.03736577
v 0.21874300 -0.06045908 0.03736577
v -0.15956951 0.16147068 -0.03694307
v -0.19841375 0.05977514 -0.09979437
v -0.13519061 0.15828392 -0.09782484
v -0.15956951 -0.16147068 -0.03694307
v -0.19841375 -0.05977514 -0.09979437
v -0.13519061 -0.15828392 -0.09782484
v -0.05977514 -0.09979437 -0.19841375
v -0.16147068 -0.03694307 -0.15956951
v -0.09782484 -0.13519061 -0.15828392
v -0.06045908 -0.03736577 -0.21874300
v -0.15828392 -0.09782484 -0.13519061
v -0.05977514 0.09979437 -0.19841375
v -0.16147068 0.03694307 -0.15956951
v -0.09782484 0.13519061 -0.15828392
v -0.06045908 0.03736577 -0.21874300
v -0.15828392 0.09782484 -0.13519061
v -0.12091816 0.00000000 -0.19564969
v -0.15956951 0.16147068 0.03694307
v -0.19841375 0.05977514 0.09979437
v -0.13519061 0.15828392 0.09782484
v -0.19564969 0.12091816 0.00000000
v -0.15956951 -0.16147068 0.03694307
v -0.19841375 -0.05977514 0.09979437
v -0.13519061 -0.15828392 0.09782484
v -0.19564969 -0.12091816 0.00000000
v -0.05977514 -0.09979437 0.19841375
v -0.16147068 -0.03694307 0.15956951
v -0.09782484 -0.13519061 0.15828392
v -0.06045908 -0.03736577 0.21874300
v -0.15828392 -0.09782484 0.13519061
v -0.05977514 0.09979437 0.19841375
v -0.16147068 0.03694307 0.15956951
v -0.09782484 0.13519061 0.15828392
v -0.06045908 0.03736577 0.21874300
v -0.15828392 0.09782484 0.13519061
v -0.12091816 0.00000000 0.19564969
v -0.22124582 0.00000000 -0.06285130
v -0.22124582 0.00000000 0.06285130
v -0.21874300 0.06045908 -0.03736577
v -0.21874300 -0.06045908 -0.03736577
v -0.21874300 0.06045908 0.03736577
v -0.21874300 -0.06045908 0.03736577
f 27 164 80
f 164 64 166
f 80 166 43
f 164 166 80
f 64 165 181
f 165 38 178
f 181 178 67
f 165 178 181
f 43 179 81
f 179 67 177
f 81 177 32
f 179 177 81
f 64 181 166
f 181 67 179
f 166 179 43
f 181 179 166
f 27 80 69
f 80 43 82
f 69 82 39
f 80 82 69
f 43 81 86
f 81 32 84
f 86 84 44
f 81 84 86
f 39 85 70
f 85 44 83
f 70 83 28
f 85 83 70
f 43 86 82
f 86 44 85
f 82 85 39
f 86 85 82
f 27 69 96
f 69 39 98
f 96 98 48
f 69 98 96
f 39 70 101
f 70 28 99
f 101 99 49
f 70 99 101
f 48 102 97
f 102 49 100
f 97 100 34
f 102 100 97
f 39 101 98
f 101 49 102
f 98 102 48
f 101 102 98
f 27 96 147
f 96 48 149
f 147 149 60
f 96 149 147
f 48 97 160
f 97 34 158
f 160 158 63
f 97 158 160
f 60 162 148
f 162 63 159
f 148 159 37
f 162 159 148
f 48 160 149
f 160 63 162
f 149 162 60
f 160 162 149
f 27 147 164
f 147 60 167
f 164 167 64
f 147 167 164
f 60 148 185
f 148 37 183
f 185 183 68
f 148 183 185
f 64 187 165
f 187 68 184
f 165 184 38
f 187 184 165
f 60 185 167
f 185 68 187
f 167 187 64
f 185 187 167
f 28 83 122
f 83 44 124
f 122 124 55
f 83 124 122
f 44 84 137
f 84 32 135
f 137 135 58
f 84 135 137
f 55 139 123
f 139 58 136
f 123 136 36
f 139 136 123
f 44 137 124
f 137 58 139
f 124 139 55
f 137 139 124
f 32 177 88
f 177 67 180
f 88 180 45
f 177 180 88
f 67 178 182
f 178 38 173
f 182 173 66
f 178 173 182
f 45 175 87
f 175 66 172
f 87 172 31
f 175 172 87
f 67 182 180
f 182 66 175
f 180 175 45
f 182 175 180
f 38 184 169
f 184 68 188
f 169 188 65
f 184 188 169
f 68 183 186
f 183 37 151
f 186 151 61
f 183 151 186
f 65 171 168
f 171 61 150
f 168 150 29
f 171 150 168
f 68 186 188
f 186 61 171
f 188 171 65
f 186 171 188
f 37 159 154
f 159 63 163
f 154 163 62
f 159 163 154
f 63 158 161
f 158 34 104
f 161 104 50
f 158 104 161
f 62 156 153
f 156 50 103
f 153 103 33
f 156 103 153
f 63 161 163
f 161 50 156
f 163 156 62
f 161 156 163
f 34 100 116
f 100 49 118
f 116 118 54
f 100 118 116
f 49 99 107
f 99 28 105
f 107 105 51
f 99 105 107
f 54 120 117
f 120 51 106
f 117 106 35
f 120 106 117
f 49 107 118
f 107 51 120
f 118 120 54
f 107 120 118
f 30 126 76
f 126 56 128
f 76 128 42
f 126 128 76
f 56 127 134
f 127 36 131
f 134 131 57
f 127 131 134
f 42 132 77
f 132 57 130
f 77 130 31
f 132 130 77
f 56 134 128
f 134 57 132
f 128 132 42
f 134 132 128
f 30 76 72
f 76 42 78
f 72 78 40
f 76 78 72
f 42 77 79
f 77 31 74
f 79 74 41
f 77 74 79
f 40 75 71
f 75 41 73
f 71 73 29
f 75 73 71
f 42 79 78
f 79 41 75
f 78 75 40
f 79 75 78
f 30 72 92
f 72 40 94
f 92 94 47
f 72 94 92
f 40 71 91
f 71 29 89
f 91 89 46
f 71 89 91
f 47 95 93
f 95 46 90
f 93 90 33
f 95 90 93
f 40 91 94
f 91 46 95
f 94 95 47
f 91 95 94
f 30 92 108
f 92 47 110
f 108 110 52
f 92 110 108
f 47 93 113
f 93 33 111
f 113 111 53
f 93 111 113
f 52 115 109
f 115 53 112
f 109 112 35
f 115 112 109
f 47 113 110
f 113 53 115
f 110 115 52
f 113 115 110
f 30 108 126
f 108 52 129
f 126 129 56
f 108 129 126
f 52 109 144
f 109 35 141
f 144 141 59
f 109 141 144
f 56 146 127
f 146 59 142
f 127 142 36
f 146 142 127
f 52 144 129
f 144 59 146
f 129 146 56
f 144 146 129
f 31 130 87
f 130 57 133
f 87 133 45
f 130 133 87
f 57 131 140
f 131 36 136
f 140 136 58
f 131 136 140
f 45 138 88
f 138 58 135
f 88 135 32
f 138 135 88
f 57 140 133
f 140 58 138
f 133 138 45
f 140 138 133
f 29 73 168
f 73 41 170
f 168 170 65
f 73 170 168
f 41 74 174
f 74 31 172
f 174 172 66
f 74 172 174
f 65 176 169
f 176 66 173
f 169 173 38
f 176 173 169
f 41 174 170
f 174 66 176
f 170 176 65
f 174 176 170
f 33 90 153
f 90 46 155
f 153 155 62
f 90 155 153
f 46 89 152
f 89 29 150
f 152 150 61
f 89 150 152
f 62 157 154
f 157 61 151
f 154 151 37
f 157 151 154
f 46 152 155
f 152 61 157
f 155 157 62
f 152 157 155
f 35 112 117
f 112 53 121
f 117 121 54
f 112 121 117
f 53 111 114
f 111 33 103
f 114 103 50
f 111 103 114
f 54 119 116
f 119 50 104
f 116 104 34
f 119 104 116
f 53 114 121
f 114 50 119
f 121 119 54
f 114 119 121
f 36 142 123
f 142 59 145
f 123 145 55
f 142 145 123
f 59 141 143
f 141 35 106
f 143 106 51
f 141 106 143
f 55 125 122
f 125 51 105
f 122 105 28
f 125 105 122
f 59 143 145
f 143 51 125
f 145 125 55
f 143 125 145

o Guard_Gem_R
v -0.12091816 0.19564969 0.00000000
v 0.12091816 0.19564969 0.00000000
v -0.12091816 -0.19564969 0.00000000
v 0.12091816 -0.19564969 0.00000000
v 0.00000000 -0.12091816 0.19564969
v 0.00000000 0.12091816 0.19564969
v 0.00000000 -0.12091816 -0.19564969
v 0.00000000 0.12091816 -0.19564969
v 0.19564969 0.00000000 -0.12091816
v 0.19564969 0.00000000 0.12091816
v -0.19564969 0.00000000 -0.12091816
v -0.19564969 0.00000000 0.12091816
v 0.00000000 0.23000000 0.00000000
v 0.00000000 -0.23000000 0.00000000
v -0.07107391 -0.18607391 0.11500000
v 0.07107391 -0.18607391 0.11500000
v -0.07107391 0.18607391 0.11500000
v 0.07107391 0.18607391 0.11500000
v 0.00000000 0.00000000 0.23000000
v -0.07107391 -0.18607391 -0.11500000
v 0.07107391 -0.18607391 -0.11500000
v -0.07107391 0.18607391 -0.11500000
v 0.07107391 0.18607391 -0.11500000
v 0.00000000 0.00000000 -0.23000000
v 0.18607391 0.11500000 -0.07107391
v 0.18607391 -0.11500000 -0.07107391
v 0.11500000 -0.07107391 -0.18607391
v 0.11500000 0.07107391 -0.18607391
v 0.18607391 0.11500000 0.07107391
v 0.18607391 -0.11500000 0.07107391
v 0.11500000 -0.07107391 0.18607391
v 0.11500000 0.07107391 0.18607391
v 0.23000000 0.00000000 0.00000000
v -0.18607391 0.11500000 -0.07107391
v -0.18607391 -0.11500000 -0.07107391
v -0.11500000 -0.07107391 -0.18607391
v -0.11500000 0.07107391 -0.18607391
v -0.18607391 0.11500000 0.07107391
v -0.18607391 -0.11500000 0.07107391
v -0.11500000 -0.07107391 0.18607391
v -0.11500000 0.07107391 0.18607391
v -0.23000000 0.00000000 0.00000000
v -0.06285130 0.22124582 0.00000000
v 0.06285130 0.22124582 0.00000000
v -0.06285130 -0.22124582 0.00000000
v 0.06285130 -0.22124582 0.00000000
v -0.09979437 -0.19841375 0.05977514
v -0.03694307 -0.15956951 0.16147068
v -0.03736577 -0.21874300 0.06045908
v 0.09979437 -0.19841375 0.05977514
v 0.03694307 -0.15956951 0.16147068
v 0.03736577 -0.21874300 0.06045908
v 0.00000000 -0.19564969 0.12091816
v -0.09979437 0.19841375 0.05977514
v -0.03694307 0.15956951 0.16147068
v -0.03736577 0.21874300 0.06045908
v 0.09979437 0.19841375 0.05977514
v 0.03694307 0.15956951 0.16147068
v 0.03736577 0.21874300 0.06045908
v 0.00000000 0.19564969 0.12091816
v 0.00000000 -0.06285130 0.22124582
v 0.00000000 0.06285130 0.22124582
v -0.09979437 -0.19841375 -0.05977514
v -0.03694307 -0.15956951 -0.16147068
v -0.03736577 -0.21874300 -0.06045908
v 0.09979437 -0.19841375 -0.05977514
v 0.03694307 -0.15956951 -0.16147068
v 0.03736577 -0.21874300 -0.06045908
v 0.00000000 -0.19564969 -0.12091816
v -0.09979437 0.19841375 -0.05977514
v -0.03694307 0.15956951 -0.16147068
v -0.03736577 0.21874300 -0.06045908
v 0.09979437 0.19841375 -0.05977514
v 0.03694307 0.15956951 -0.16147068
v 0.03736577 0.21874300 -0.06045908
v 0.00000000 0.19564969 -0.12091816
v 0.00000000 -0.06285130 -0.22124582
v 0.00000000 0.06285130 -0.22124582
v 0.15956951 0.16147068 -0.03694307
v 0.19841375 0.05977514 -0.09979437
v 0.13519061 0.15828392 -0.09782484
v 0.15956951 -0.16147068 -0.03694307
v 0.19841375 -0.05977514 -0.09979437
v 0.13519061 -0.15828392 -0.09782484
v 0.05977514 -0.09979437 -0.19841375
v 0.16147068 -0.03694307 -0.15956951
v 0.09782484 -0.13519061 -0.15828392
v 0.06045908 -0.03736577 -0.21874300
v 0.15828392 -0.09782484 -0.13519061
v 0.05977514 0.09979437 -0.19841375
v 0.16147068 0.03694307 -0.15956951
v 0.09782484 0.13519061 -0.15828392
v 0.06045908 0.03736577 -0.21874300
v 0.15828392 0.09782484 -0.13519061
v 0.12091816 0.00000000 -0.19564969
v 0.15956951 0.16147068 0.03694307
v 0.19841375 0.05977514 0.09979437
v 0.13519061 0.15828392 0.09782484
v 0.19564969 0.12091816 0.00000000
v 0.15956951 -0.16147068 0.03694307
v 0.19841375 -0.05977514 0.09979437
v 0.13519061 -0.15828392 0.09782484
v 0.19564969 -0.12091816 0.00000000
v 0.05977514 -0.09979437 0.19841375
v 0.16147068 -0.03694307 0.15956951
v 0.09782484 -0.13519061 0.15828392
v 0.06045908 -0.03736577 0.21874300
v 0.15828392 -0.09782484 0.13519061
v 0.05977514 0.09979437 0.19841375
v 0.16147068 0.03694307 0.15956951
v 0.09782484 0.13519061 0.15828392
v 0.06045908 0.03736577 0.21874300
v 0.15828392 0.09782484 0.13519061
v 0.12091816 0.00000000 0.19564969
v 0.22124582 0.00000000 -0.06285130
v 0.22124582 0.00000000 0.06285130
v 0.21874300 0.06045908 -0.03736577
v 0.21874300 -0.06045908 -0.03736577
v 0.21874300 0.06045908 0.03736577
v 0.21874300 -0.06045908 0.03736577
v -0.15956951 0.16147068 -0.03694307
v -0.19841375 0.05977514 -0.09979437
v -0.13519061 0.15828392 -0.09782484
v -0.15956951 -0.16147068 -0.03694307
v -0.19841375 -0.05977514 -0.09979437
v -0.13519061 -0.15828392 -0.09782484
v -0.05977514 -0.09979437 -0.19841375
v -0.16147068 -0.03694307 -0.15956951
v -0.09782484 -0.13519061 -0.15828392
v -0.06045908 -0.03736577 -0.21874300
v -0.15828392 -0.09782484 -0.13519061
v -0.05977514 0.09979437 -0.19841375
v -0.16147068 0.03694307 -0.15956951
v -0.09782484 0.13519061 -0.15828392
v -0.06045908 0.03736577 -0.21874300
v -0.15828392 0.09782484 -0.13519061
v -0.12091816 0.00000000 -0.19564969
v -0.15956951 0.16147068 0.03694307
v -0.19841375 0.05977514 0.09979437
v -0.13519061 0.15828392 0.09782484
v -0.19564969 0.12091816 0.00000000
v -0.15956951 -0.16147068 0.03694307
v -0.19841375 -0.05977514 0.09979437
v -0.13519061 -0.15828392 0.09782484
v -0.19564969 -0.12091816 0.00000000
v -0.05977514 -0.09979437 0.19841375
v -0.16147068 -0.03694307 0.15956951
v -0.09782484 -0.13519061 0.15828392
v -0.06045908 -0.03736577 0.21874300
v -0.15828392 -0.09782484 0.13519061
v -0.05977514 0.09979437 0.19841375
v -0.16147068 0.03694307 0.15956951
v -0.09782484 0.13519061 0.15828392
v -0.06045908 0.03736577 0.21874300
v -0.15828392 0.09782484 0.13519061
v -0.12091816 0.00000000 0.19564969
v -0.22124582 0.00000000 -0.06285130
v -0.22124582 0.00000000 0.06285130
v -0.21874300 0.06045908 -0.03736577
v -0.21874300 -0.06045908 -0.03736577
v -0.21874300 0.06045908 0.03736577
v -0.21874300 -0.06045908 0.03736577
f 189 326 242
f 326 226 328
f 242 328 205
f 326 328 242
f 226 327 343
f 327 200 340
f 343 340 229
f 327 340 343
f 205 341 243
f 341 229 339
f 243 339 194
f 341 339 243
f 226 343 328
f 343 229 341
f 328 341 205
f 343 341 328
f 189 242 231
f 242 205 244
f 231 244 201
f 242 244 231
f 205 243 248
f 243 194 246
f 248 246 206
f 243 246 248
f 201 247 232
f 247 206 245
f 232 245 190
f 247 245 232
f 205 248 244
f 248 206 247
f 244 247 201
f 248 247 244
f 189 231 258
f 231 201 260
f 258 260 210
f 231 260 258
f 201 232 263
f 232 190 261
f 263 261 211
f 232 261 263
f 210 264 259
f 264 211 262
f 259 262 196
f 264 262 259
f 201 263 260
f 263 211 264
f 260 264 210
f 263 264 260
f 189 258 309
f 258 210 311
f 309 311 222
f 258 311 309
f 210 259 322
f 259 196 320
f 322 320 225
f 259 320 322
f 222 324 310
f 324 225 321
f 310 321 199
f 324 321 310
f 210 322 311
f 322 225 324
f 311 324 222
f 322 324 311
f 189 309 326
f 309 222 329
f 326 329 226
f 309 329 326
f 222 310 347
f 310 199 345
f 347 345 230
f 310 345 347
f 226 349 327
f 349 230 346
f 327 346 200
f 349 346 327
f 222 347 329
f 347 230 349
f 329 349 226
f 347 349 329
f 190 245 284
f 245 206 286
f 284 286 217
f 245 286 284
f 206 246 299
f 246 194 297
f 299 297 220
f 246 297 299
f 217 301 285
f 301 220 298
f 285 298 198
f 301 298 285
f 206 299 286
f 299 220 301
f 286 301 217
f 299 301 286
f 194 339 250
f 339 229 342
f 250 342 207
f 339 342 250
f 229 340 344
f 340 200 335
f 344 335 228
f 340 335 344
f 207 337 249
f 337 228 334
f 249 334 193
f 337 334 249
f 229 344 342
f 344 228 337
f 342 337 207
f 344 337 342
f 200 346 331
f 346 230 350
f 331 350 227
f 346 350 331
f 230 345 348
f 345 199 313
f 348 313 223
f 345 313 348
f 227 333 330
f 333 223 312
f 330 312 191
f 333 312 330
f 230 348 350
f 348 223 333
f 350 333 227
f 348 333 350
f 199 321 316
f 321 225 325
f 316 325 224
f 321 325 316
f 225 320 323
f 320 196 266
f 323 266 212
f 320 266 323
f 224 318 315
f 318 212 265
f 315 265 195
f 318 265 315
f 225 323 325
f 323 212 318
f 325 318 224
f 323 318 325
f 196 262 278
f 262 211 280
f 278 280 216
f 262 280 278
f 211 261 269
f 261 190 267
f 269 267 213
f 261 267 269
f 216 282 279
f 282 213 268
f 279 268 197
f 282 268 279
f 211 269 280
f 269 213 282
f 280 282 216
f 269 282 280
f 192 288 238
f 288 218 290
f 238 290 204
f 288 290 238
f 218 289 296
f 289 198 293
f 296 293 219
f 289 293 296
f 204 294 239
f 294 219 292
f 239 292 193
f 294 292 239
f 218 296 290
f 296 219 294
f 290 294 204
f 296 294 290
f 192 238 234
f 238 204 240
f 234 240 202
f 238 240 234
f 204 239 241
f 239 193 236
f 241 236 203
f 239 236 241
f 202 237 233
f 237 203 235
f 233 235 191
f 237 235 233
f 204 241 240
f 241 203 237
f 240 237 202
f 241 237 240
f 192 234 254
f 234 202 256
f 254 256 209
f 234 256 254
f 202 233 253
f 233 191 251
f 253 251 208
f 233 251 253
f 209 257 255
f 257 208 252
f 255 252 195
f 257 252 255
f 202 253 256
f 253 208 257
f 256 257 209
f 253 257 256
f 192 254 270
f 254 209 272
f 270 272 214
f 254 272 270
f 209 255 275
f 255 195 273
f 275 273 215
f 255 273 275
f 214 277 271
f 277 215 274
f 271 274 197
f 277 274 271
f 209 275 272
f 275 215 277
f 272 277 214
f 275 277 272
f 192 270 288
f 270 214 291
f 288 291 218
f 270 291 288
f 214 271 306
f 271 197 303
f 306 303 221
f 271 303 306
f 218 308 289
f 308 221 304
f 289 304 198
f 308 304 289
f 214 306 291
f 306 221 308
f 291 308 218
f 306 308 291
f 193 292 249
f 292 219 295
f 249 295 207
f 292 295 249
f 219 293 302
f 293 198 298
f 302 298 220
f 293 298 302
f 207 300 250
f 300 220 297
f 250 297 194
f 300 297 250
f 219 302 295
f 302 220 300
f 295 300 207
f 302 300 295
f 191 235 330
f 235 203 332
f 330 332 227
f 235 332 330
f 203 236 336
f 236 193 334
f 336 334 228
f 236 334 336
f 227 338 331
f 338 228 335
f 331 335 200
f 338 335 331
f 203 336 332
f 336 228 338
f 332 338 227
f 336 338 332
f 195 252 315
f 252 208 317
f 315 317 224
f 252 317 315
f 208 251 314
f 251 191 312
f 314 312 223
f 251 312 314
f 224 319 316
f 319 223 313
f 316 313 199
f 319 313 316
f 208 314 317
f 314 223 319
f 317 319 224
f 314 319 317
f 197 274 279
f 274 215 283
f 279 283 216
f 274 283 279
f 215 273 276
f 273 195 265
f 276 265 212
f 273 265 276
f 216 281 278
f 281 212 266
f 278 266 196
f 281 266 278
f 215 276 283
f 276 212 281
f 283 281 216
f 276 281 283
f 198 304 285
f 304 221 307
f 285 307 217
f 304 307 285
f 221 303 305
f 303 197 268
f 305 268 213
f 303 268 305
f 217 287 284
f 287 213 267
f 284 267 190
f 287 267 284
f 221 305 307
f 305 213 287
f 307 287 217
f 305 287 307

o Leather_Grip
v 0.00000000 0.00000000 -1.59500000
v 0.22000000 0.00000000 -1.59500000
v 0.22000000 0.00000000 -0.04500000
v 0.00000000 0.00000000 -0.04500000
v 0.20325350 0.08419036 -1.59500000
v 0.20325350 0.08419036 -0.04500000
v 0.15556349 0.15556349 -1.59500000
v 0.15556349 0.15556349 -0.04500000
v 0.08419036 0.20325350 -1.59500000
v 0.08419036 0.20325350 -0.04500000
v 0.00000000 0.22000000 -1.59500000
v 0.00000000 0.22000000 -0.04500000
v -0.08419036 0.20325350 -1.59500000
v -0.08419036 0.20325350 -0.04500000
v -0.15556349 0.15556349 -1.59500000
v -0.15556349 0.15556349 -0.04500000
v -0.20325350 0.08419036 -1.59500000
v -0.20325350 0.08419036 -0.04500000
v -0.22000000 0.00000000 -1.59500000
v -0.22000000 0.00000000 -0.04500000
v -0.20325350 -0.08419036 -1.59500000
v -0.20325350 -0.08419036 -0.04500000
v -0.15556349 -0.15556349 -1.59500000
v -0.15556349 -0.15556349 -0.04500000
v -0.08419036 -0.20325350 -1.59500000
v -0.08419036 -0.20325350 -0.04500000
v -0.00000000 -0.22000000 -1.59500000
v -0.00000000 -0.22000000 -0.04500000
v 0.08419036 -0.20325350 -1.59500000
v 0.08419036 -0.20325350 -0.04500000
v 0.15556349 -0.15556349 -1.59500000
v 0.15556349 -0.15556349 -0.04500000
v 0.20325350 -0.08419036 -1.59500000
v 0.20325350 -0.08419036 -0.04500000
f 352 351 355
f 352 355 353
f 353 355 356
f 353 356 354
f 355 351 357
f 355 357 356
f 356 357 358
f 356 358 354
f 357 351 359
f 357 359 358
f 358 359 360
f 358 360 354
f 359 351 361
f 359 361 360
f 360 361 362
f 360 362 354
f 361 351 363
f 361 363 362
f 362 363 364
f 362 364 354
f 363 351 365
f 363 365 364
f 364 365 366
f 364 366 354
f 365 351 367
f 365 367 366
f 366 367 368
f 366 368 354
f 367 351 369
f 367 369 368
f 368 369 370
f 368 370 354
f 369 351 371
f 369 371 370
f 370 371 372
f 370 372 354
f 371 351 373
f 371 373 372
f 372 373 374
f 372 374 354
f 373 351 375
f 373 375 374
f 374 375 376
f 374 376 354
f 375 351 377
f 375 377 376
f 376 377 378
f 376 378 354
f 377 351 379
f 377 379 378
f 378 379 380
f 378 380 354
f 379 351 381
f 379 381 380
f 380 381 382
f 380 382 354
f 381 351 383
f 381 383 382
f 382 383 384
f 382 384 354
f 383 351 352
f 383 352 384
f 384 352 353
f 384 353 354

o Grip_Collar_Top
v 0.00000000 0.00000000 -0.16000000
v 0.27000000 0.00000000 -0.16000000
v 0.27000000 0.00000000 0.00000000
v 0.00000000 0.00000000 0.00000000
v 0.24944747 0.10332453 -0.16000000
v 0.24944747 0.10332453 0.00000000
v 0.19091883 0.19091883 -0.16000000
v 0.19091883 0.19091883 0.00000000
v 0.10332453 0.24944747 -0.16000000
v 0.10332453 0.24944747 0.00000000
v 0.00000000 0.27000000 -0.16000000
v 0.00000000 0.27000000 0.00000000
v -0.10332453 0.24944747 -0.16000000
v -0.10332453 0.24944747 0.00000000
v -0.19091883 0.19091883 -0.16000000
v -0.19091883 0.19091883 0.00000000
v -0.24944747 0.10332453 -0.16000000
v -0.24944747 0.10332453 0.00000000
v -0.27000000 0.00000000 -0.16000000
v -0.27000000 0.00000000 0.00000000
v -0.24944747 -0.10332453 -0.16000000
v -0.24944747 -0.10332453 0.00000000
v -0.19091883 -0.19091883 -0.16000000
v -0.19091883 -0.19091883 0.00000000
v -0.10332453 -0.24944747 -0.16000000
v -0.10332453 -0.24944747 0.00000000
v -0.00000000 -0.27000000 -0.16000000
v -0.00000000 -0.27000000 0.00000000
v 0.10332453 -0.24944747 -0.16000000
v 0.10332453 -0.24944747 0.00000000
v 0.19091883 -0.19091883 -0.16000000
v 0.19091883 -0.19091883 0.00000000
v 0.24944747 -0.10332453 -0.16000000
v 0.24944747 -0.10332453 0.00000000
f 386 385 389
f 386 389 387
f 387 389 390
f 387 390 388
f 389 385 391
f 389 391 390
f 390 391 392
f 390 392 388
f 391 385 393
f 391 393 392
f 392 393 394
f 392 394 388
f 393 385 395
f 393 395 394
f 394 395 396
f 394 396 388
f 395 385 397
f 395 397 396
f 396 397 398
f 396 398 388
f 397 385 399
f 397 399 398
f 398 399 400
f 398 400 388
f 399 385 401
f 399 401 400
f 400 401 402
f 400 402 388
f 401 385 403
f 401 403 402
f 402 403 404
f 402 404 388
f 403 385 405
f 403 405 404
f 404 405 406
f 404 406 388
f 405 385 407
f 405 407 406
f 406 407 408
f 406 408 388
f 407 385 409
f 407 409 408
f 408 409 410
f 408 410 388
f 409 385 411
f 409 411 410
f 410 411 412
f 410 412 388
f 411 385 413
f 411 413 412
f 412 413 414
f 412 414 388
f 413 385 415
f 413 415 414
f 414 415 416
f 414 416 388
f 415 385 417
f 415 417 416
f 416 417 418
f 416 418 388
f 417 385 386
f 417 386 418
f 418 386 387
f 418 387 388

o Grip_Collar_Bottom
v 0.00000000 0.00000000 -1.64000000
v 0.27000000 0.00000000 -1.64000000
v 0.27000000 0.00000000 -1.48000000
v 0.00000000 0.00000000 -1.48000000
v 0.24944747 0.10332453 -1.64000000
v 0.24944747 0.10332453 -1.48000000
v 0.19091883 0.19091883 -1.64000000
v 0.19091883 0.19091883 -1.48000000
v 0.10332453 0.24944747 -1.64000000
v 0.10332453 0.24944747 -1.48000000
v 0.00000000 0.27000000 -1.64000000
v 0.00000000 0.27000000 -1.48000000
v -0.10332453 0.24944747 -1.64000000
v -0.10332453 0.24944747 -1.48000000
v -0.19091883 0.19091883 -1.64000000
v -0.19091883 0.19091883 -1.48000000
v -0.24944747 0.10332453 -1.64000000
v -0.24944747 0.10332453 -1.48000000
v -0.27000000 0.00000000 -1.64000000
v -0.27000000 0.00000000 -1.48000000
v -0.24944747 -0.10332453 -1.64000000
v -0.24944747 -0.10332453 -1.48000000
v -0.19091883 -0.19091883 -1.64000000
v -0.19091883 -0.19091883 -1.48000000
v -0.10332453 -0.24944747 -1.64000000
v -0.10332453 -0.24944747 -1.48000000
v -0.00000000 -0.27000000 -1.64000000
v -0.00000000 -0.27000000 -1.48000000
v 0.10332453 -0.24944747 -1.64000000
v 0.10332453 -0.24944747 -1.48000000
v 0.19091883 -0.19091883 -1.64000000
v 0.19091883 -0.19091883 -1.48000000
v 0.24944747 -0.10332453 -1.64000000
v 0.24944747 -0.10332453 -1.48000000
f 420 419 423
f 420 423 421
f 421 423 424
f 421 424 422
f 423 419 425
f 423 425 424
f 424 425 426
f 424 426 422
f 425 419 427
f 425 427 426
f 426 427 428
f 426 428 422
f 427 419 429
f 427 429 428
f 428 429 430
f 428 430 422
f 429 419 431
f 429 431 430
f 430 431 432
f 430 432 422
f 431 419 433
f 431 433 432
f 432 433 434
f 432 434 422
f 433 419 435
f 433 435 434
f 434 435 436
f 434 436 422
f 435 419 437
f 435 437 436
f 436 437 438
f 436 438 422
f 437 419 439
f 437 439 438
f 438 439 440
f 438 440 422
f 439 419 441
f 439 441 440
f 440 441 442
f 440 442 422
f 441 419 443
f 441 443 442
f 442 443 444
f 442 444 422
f 443 419 445
f 443 445 444
f 444 445 446
f 444 446 422
f 445 419 447
f 445 447 446
f 446 447 448
f 446 448 422
f 447 419 449
f 447 449 448
f 448 449 450
f 448 450 422
f 449 419 451
f 449 451 450
f 450 451 452
f 450 452 422
f 451 419 420
f 451 420 452
f 452 420 421
f 452 421 422

o Grip_Wrap_1
v 0.25000000 0.00000000 -1.38000000
v 0.23750000 0.00000000 -1.35834936
v 0.21250000 0.00000000 -1.35834936
v 0.20000000 0.00000000 -1.38000000
v 0.21250000 0.00000000 -1.40165064
v 0.23750000 0.00000000 -1.40165064
v 0.23096988 0.09567086 -1.38000000
v 0.21942139 0.09088732 -1.35834936
v 0.19632440 0.08132023 -1.35834936
v 0.18477591 0.07653669 -1.38000000
v 0.19632440 0.08132023 -1.40165064
v 0.21942139 0.09088732 -1.40165064
v 0.17677670 0.17677670 -1.38000000
v 0.16793786 0.16793786 -1.35834936
v 0.15026019 0.15026019 -1.35834936
v 0.14142136 0.14142136 -1.38000000
v 0.15026019 0.15026019 -1.40165064
v 0.16793786 0.16793786 -1.40165064
v 0.09567086 0.23096988 -1.38000000
v 0.09088732 0.21942139 -1.35834936
v 0.08132023 0.19632440 -1.35834936
v 0.07653669 0.18477591 -1.38000000
v 0.08132023 0.19632440 -1.40165064
v 0.09088732 0.21942139 -1.40165064
v 0.00000000 0.25000000 -1.38000000
v 0.00000000 0.23750000 -1.35834936
v 0.00000000 0.21250000 -1.35834936
v 0.00000000 0.20000000 -1.38000000
v 0.00000000 0.21250000 -1.40165064
v 0.00000000 0.23750000 -1.40165064
v -0.09567086 0.23096988 -1.38000000
v -0.09088732 0.21942139 -1.35834936
v -0.08132023 0.19632440 -1.35834936
v -0.07653669 0.18477591 -1.38000000
v -0.08132023 0.19632440 -1.40165064
v -0.09088732 0.21942139 -1.40165064
v -0.17677670 0.17677670 -1.38000000
v -0.16793786 0.16793786 -1.35834936
v -0.15026019 0.15026019 -1.35834936
v -0.14142136 0.14142136 -1.38000000
v -0.15026019 0.15026019 -1.40165064
v -0.16793786 0.16793786 -1.40165064
v -0.23096988 0.09567086 -1.38000000
v -0.21942139 0.09088732 -1.35834936
v -0.19632440 0.08132023 -1.35834936
v -0.18477591 0.07653669 -1.38000000
v -0.19632440 0.08132023 -1.40165064
v -0.21942139 0.09088732 -1.40165064
v -0.25000000 0.00000000 -1.38000000
v -0.23750000 0.00000000 -1.35834936
v -0.21250000 0.00000000 -1.35834936
v -0.20000000 0.00000000 -1.38000000
v -0.21250000 0.00000000 -1.40165064
v -0.23750000 0.00000000 -1.40165064
v -0.23096988 -0.09567086 -1.38000000
v -0.21942139 -0.09088732 -1.35834936
v -0.19632440 -0.08132023 -1.35834936
v -0.18477591 -0.07653669 -1.38000000
v -0.19632440 -0.08132023 -1.40165064
v -0.21942139 -0.09088732 -1.40165064
v -0.17677670 -0.17677670 -1.38000000
v -0.16793786 -0.16793786 -1.35834936
v -0.15026019 -0.15026019 -1.35834936
v -0.14142136 -0.14142136 -1.38000000
v -0.15026019 -0.15026019 -1.40165064
v -0.16793786 -0.16793786 -1.40165064
v -0.09567086 -0.23096988 -1.38000000
v -0.09088732 -0.21942139 -1.35834936
v -0.08132023 -0.19632440 -1.35834936
v -0.07653669 -0.18477591 -1.38000000
v -0.08132023 -0.19632440 -1.40165064
v -0.09088732 -0.21942139 -1.40165064
v -0.00000000 -0.25000000 -1.38000000
v -0.00000000 -0.23750000 -1.35834936
v -0.00000000 -0.21250000 -1.35834936
v -0.00000000 -0.20000000 -1.38000000
v -0.00000000 -0.21250000 -1.40165064
v -0.00000000 -0.23750000 -1.40165064
v 0.09567086 -0.23096988 -1.38000000
v 0.09088732 -0.21942139 -1.35834936
v 0.08132023 -0.19632440 -1.35834936
v 0.07653669 -0.18477591 -1.38000000
v 0.08132023 -0.19632440 -1.40165064
v 0.09088732 -0.21942139 -1.40165064
v 0.17677670 -0.17677670 -1.38000000
v 0.16793786 -0.16793786 -1.35834936
v 0.15026019 -0.15026019 -1.35834936
v 0.14142136 -0.14142136 -1.38000000
v 0.15026019 -0.15026019 -1.40165064
v 0.16793786 -0.16793786 -1.40165064
v 0.23096988 -0.09567086 -1.38000000
v 0.21942139 -0.09088732 -1.35834936
v 0.19632440 -0.08132023 -1.35834936
v 0.18477591 -0.07653669 -1.38000000
v 0.19632440 -0.08132023 -1.40165064
v 0.21942139 -0.09088732 -1.40165064
f 453 459 454
f 454 459 460
f 454 460 455
f 455 460 461
f 455 461 456
f 456 461 462
f 456 462 457
f 457 462 463
f 457 463 458
f 458 463 464
f 458 464 453
f 453 464 459
f 459 465 460
f 460 465 466
f 460 466 461
f 461 466 467
f 461 467 462
f 462 467 468
f 462 468 463
f 463 468 469
f 463 469 464
f 464 469 470
f 464 470 459
f 459 470 465
f 465 471 466
f 466 471 472
f 466 472 467
f 467 472 473
f 467 473 468
f 468 473 474
f 468 474 469
f 469 474 475
f 469 475 470
f 470 475 476
f 470 476 465
f 465 476 471
f 471 477 472
f 472 477 478
f 472 478 473
f 473 478 479
f 473 479 474
f 474 479 480
f 474 480 475
f 475 480 481
f 475 481 476
f 476 481 482
f 476 482 471
f 471 482 477
f 477 483 478
f 478 483 484
f 478 484 479
f 479 484 485
f 479 485 480
f 480 485 486
f 480 486 481
f 481 486 487
f 481 487 482
f 482 487 488
f 482 488 477
f 477 488 483
f 483 489 484
f 484 489 490
f 484 490 485
f 485 490 491
f 485 491 486
f 486 491 492
f 486 492 487
f 487 492 493
f 487 493 488
f 488 493 494
f 488 494 483
f 483 494 489
f 489 495 490
f 490 495 496
f 490 496 491
f 491 496 497
f 491 497 492
f 492 497 498
f 492 498 493
f 493 498 499
f 493 499 494
f 494 499 500
f 494 500 489
f 489 500 495
f 495 501 496
f 496 501 502
f 496 502 497
f 497 502 503
f 497 503 498
f 498 503 504
f 498 504 499
f 499 504 505
f 499 505 500
f 500 505 506
f 500 506 495
f 495 506 501
f 501 507 502
f 502 507 508
f 502 508 503
f 503 508 509
f 503 509 504
f 504 509 510
f 504 510 505
f 505 510 511
f 505 511 506
f 506 511 512
f 506 512 501
f 501 512 507
f 507 513 508
f 508 513 514
f 508 514 509
f 509 514 515
f 509 515 510
f 510 515 516
f 510 516 511
f 511 516 517
f 511 517 512
f 512 517 518
f 512 518 507
f 507 518 513
f 513 519 514
f 514 519 520
f 514 520 515
f 515 520 521
f 515 521 516
f 516 521 522
f 516 522 517
f 517 522 523
f 517 523 518
f 518 523 524
f 518 524 513
f 513 524 519
f 519 525 520
f 520 525 526
f 520 526 521
f 521 526 527
f 521 527 522
f 522 527 528
f 522 528 523
f 523 528 529
f 523 529 524
f 524 529 530
f 524 530 519
f 519 530 525
f 525 531 526
f 526 531 532
f 526 532 527
f 527 532 533
f 527 533 528
f 528 533 534
f 528 534 529
f 529 534 535
f 529 535 530
f 530 535 536
f 530 536 525
f 525 536 531
f 531 537 532
f 532 537 538
f 532 538 533
f 533 538 539
f 533 539 534
f 534 539 540
f 534 540 535
f 535 540 541
f 535 541 536
f 536 541 542
f 536 542 531
f 531 542 537
f 537 543 538
f 538 543 544
f 538 544 539
f 539 544 545
f 539 545 540
f 540 545 546
f 540 546 541
f 541 546 547
f 541 547 542
f 542 547 548
f 542 548 537
f 537 548 543
f 543 453 544
f 544 453 454
f 544 454 545
f 545 454 455
f 545 455 546
f 546 455 456
f 546 456 547
f 547 456 457
f 547 457 548
f 548 457 458
f 548 458 543
f 543 458 453

o Grip_Wrap_2
v 0.25000000 0.00000000 -1.16000000
v 0.23750000 0.00000000 -1.13834936
v 0.21250000 0.00000000 -1.13834936
v 0.20000000 0.00000000 -1.16000000
v 0.21250000 0.00000000 -1.18165064
v 0.23750000 0.00000000 -1.18165064
v 0.23096988 0.09567086 -1.16000000
v 0.21942139 0.09088732 -1.13834936
v 0.19632440 0.08132023 -1.13834936
v 0.18477591 0.07653669 -1.16000000
v 0.19632440 0.08132023 -1.18165064
v 0.21942139 0.09088732 -1.18165064
v 0.17677670 0.17677670 -1.16000000
v 0.16793786 0.16793786 -1.13834936
v 0.15026019 0.15026019 -1.13834936
v 0.14142136 0.14142136 -1.16000000
v 0.15026019 0.15026019 -1.18165064
v 0.16793786 0.16793786 -1.18165064
v 0.09567086 0.23096988 -1.16000000
v 0.09088732 0.21942139 -1.13834936
v 0.08132023 0.19632440 -1.13834936
v 0.07653669 0.18477591 -1.16000000
v 0.08132023 0.19632440 -1.18165064
v 0.09088732 0.21942139 -1.18165064
v 0.00000000 0.25000000 -1.16000000
v 0.00000000 0.23750000 -1.13834936
v 0.00000000 0.21250000 -1.13834936
v 0.00000000 0.20000000 -1.16000000
v 0.00000000 0.21250000 -1.18165064
v 0.00000000 0.23750000 -1.18165064
v -0.09567086 0.23096988 -1.16000000
v -0.09088732 0.21942139 -1.13834936
v -0.08132023 0.19632440 -1.13834936
v -0.07653669 0.18477591 -1.16000000
v -0.08132023 0.19632440 -1.18165064
v -0.09088732 0.21942139 -1.18165064
v -0.17677670 0.17677670 -1.16000000
v -0.16793786 0.16793786 -1.13834936
v -0.15026019 0.15026019 -1.13834936
v -0.14142136 0.14142136 -1.16000000
v -0.15026019 0.15026019 -1.18165064
v -0.16793786 0.16793786 -1.18165064
v -0.23096988 0.09567086 -1.16000000
v -0.21942139 0.09088732 -1.13834936
v -0.19632440 0.08132023 -1.13834936
v -0.18477591 0.07653669 -1.16000000
v -0.19632440 0.08132023 -1.18165064
v -0.21942139 0.09088732 -1.18165064
v -0.25000000 0.00000000 -1.16000000
v -0.23750000 0.00000000 -1.13834936
v -0.21250000 0.00000000 -1.13834936
v -0.20000000 0.00000000 -1.16000000
v -0.21250000 0.00000000 -1.18165064
v -0.23750000 0.00000000 -1.18165064
v -0.23096988 -0.09567086 -1.16000000
v -0.21942139 -0.09088732 -1.13834936
v -0.19632440 -0.08132023 -1.13834936
v -0.18477591 -0.07653669 -1.16000000
v -0.19632440 -0.08132023 -1.18165064
v -0.21942139 -0.09088732 -1.18165064
v -0.17677670 -0.17677670 -1.16000000
v -0.16793786 -0.16793786 -1.13834936
v -0.15026019 -0.15026019 -1.13834936
v -0.14142136 -0.14142136 -1.16000000
v -0.15026019 -0.15026019 -1.18165064
v -0.16793786 -0.16793786 -1.18165064
v -0.09567086 -0.23096988 -1.16000000
v -0.09088732 -0.21942139 -1.13834936
v -0.08132023 -0.19632440 -1.13834936
v -0.07653669 -0.18477591 -1.16000000
v -0.08132023 -0.19632440 -1.18165064
v -0.09088732 -0.21942139 -1.18165064
v -0.00000000 -0.25000000 -1.16000000
v -0.00000000 -0.23750000 -1.13834936
v -0.00000000 -0.21250000 -1.13834936
v -0.00000000 -0.20000000 -1.16000000
v -0.00000000 -0.21250000 -1.18165064
v -0.00000000 -0.23750000 -1.18165064
v 0.09567086 -0.23096988 -1.16000000
v 0.09088732 -0.21942139 -1.13834936
v 0.08132023 -0.19632440 -1.13834936
v 0.07653669 -0.18477591 -1.16000000
v 0.08132023 -0.19632440 -1.18165064
v 0.09088732 -0.21942139 -1.18165064
v 0.17677670 -0.17677670 -1.16000000
v 0.16793786 -0.16793786 -1.13834936
v 0.15026019 -0.15026019 -1.13834936
v 0.14142136 -0.14142136 -1.16000000
v 0.15026019 -0.15026019 -1.18165064
v 0.16793786 -0.16793786 -1.18165064
v 0.23096988 -0.09567086 -1.16000000
v 0.21942139 -0.09088732 -1.13834936
v 0.19632440 -0.08132023 -1.13834936
v 0.18477591 -0.07653669 -1.16000000
v 0.19632440 -0.08132023 -1.18165064
v 0.21942139 -0.09088732 -1.18165064
f 549 555 550
f 550 555 556
f 550 556 551
f 551 556 557
f 551 557 552
f 552 557 558
f 552 558 553
f 553 558 559
f 553 559 554
f 554 559 560
f 554 560 549
f 549 560 555
f 555 561 556
f 556 561 562
f 556 562 557
f 557 562 563
f 557 563 558
f 558 563 564
f 558 564 559
f 559 564 565
f 559 565 560
f 560 565 566
f 560 566 555
f 555 566 561
f 561 567 562
f 562 567 568
f 562 568 563
f 563 568 569
f 563 569 564
f 564 569 570
f 564 570 565
f 565 570 571
f 565 571 566
f 566 571 572
f 566 572 561
f 561 572 567
f 567 573 568
f 568 573 574
f 568 574 569
f 569 574 575
f 569 575 570
f 570 575 576
f 570 576 571
f 571 576 577
f 571 577 572
f 572 577 578
f 572 578 567
f 567 578 573
f 573 579 574
f 574 579 580
f 574 580 575
f 575 580 581
f 575 581 576
f 576 581 582
f 576 582 577
f 577 582 583
f 577 583 578
f 578 583 584
f 578 584 573
f 573 584 579
f 579 585 580
f 580 585 586
f 580 586 581
f 581 586 587
f 581 587 582
f 582 587 588
f 582 588 583
f 583 588 589
f 583 589 584
f 584 589 590
f 584 590 579
f 579 590 585
f 585 591 586
f 586 591 592
f 586 592 587
f 587 592 593
f 587 593 588
f 588 593 594
f 588 594 589
f 589 594 595
f 589 595 590
f 590 595 596
f 590 596 585
f 585 596 591
f 591 597 592
f 592 597 598
f 592 598 593
f 593 598 599
f 593 599 594
f 594 599 600
f 594 600 595
f 595 600 601
f 595 601 596
f 596 601 602
f 596 602 591
f 591 602 597
f 597 603 598
f 598 603 604
f 598 604 599
f 599 604 605
f 599 605 600
f 600 605 606
f 600 606 601
f 601 606 607
f 601 607 602
f 602 607 608
f 602 608 597
f 597 608 603
f 603 609 604
f 604 609 610
f 604 610 605
f 605 610 611
f 605 611 606
f 606 611 612
f 606 612 607
f 607 612 613
f 607 613 608
f 608 613 614
f 608 614 603
f 603 614 609
f 609 615 610
f 610 615 616
f 610 616 611
f 611 616 617
f 611 617 612
f 612 617 618
f 612 618 613
f 613 618 619
f 613 619 614
f 614 619 620
f 614 620 609
f 609 620 615
f 615 621 616
f 616 621 622
f 616 622 617
f 617 622 623
f 617 623 618
f 618 623 624
f 618 624 619
f 619 624 625
f 619 625 620
f 620 625 626
f 620 626 615
f 615 626 621
f 621 627 622
f 622 627 628
f 622 628 623
f 623 628 629
f 623 629 624
f 624 629 630
f 624 630 625
f 625 630 631
f 625 631 626
f 626 631 632
f 626 632 621
f 621 632 627
f 627 633 628
f 628 633 634
f 628 634 629
f 629 634 635
f 629 635 630
f 630 635 636
f 630 636 631
f 631 636 637
f 631 637 632
f 632 637 638
f 632 638 627
f 627 638 633
f 633 639 634
f 634 639 640
f 634 640 635
f 635 640 641
f 635 641 636
f 636 641 642
f 636 642 637
f 637 642 643
f 637 643 638
f 638 643 644
f 638 644 633
f 633 644 639
f 639 549 640
f 640 549 550
f 640 550 641
f 641 550 551
f 641 551 642
f 642 551 552
f 642 552 643
f 643 552 553
f 643 553 644
f 644 553 554
f 644 554 639
f 639 554 549

o Grip_Wrap_3
v 0.25000000 0.00000000 -0.94000000
v 0.23750000 0.00000000 -0.91834936
v 0.21250000 0.00000000 -0.91834936
v 0.20000000 0.00000000 -0.94000000
v 0.21250000 0.00000000 -0.96165064
v 0.23750000 0.00000000 -0.96165064
v 0.23096988 0.09567086 -0.94000000
v 0.21942139 0.09088732 -0.91834936
v 0.19632440 0.08132023 -0.91834936
v 0.18477591 0.07653669 -0.94000000
v 0.19632440 0.08132023 -0.96165064
v 0.21942139 0.09088732 -0.96165064
v 0.17677670 0.17677670 -0.94000000
v 0.16793786 0.16793786 -0.91834936
v 0.15026019 0.15026019 -0.91834936
v 0.14142136 0.14142136 -0.94000000
v 0.15026019 0.15026019 -0.96165064
v 0.16793786 0.16793786 -0.96165064
v 0.09567086 0.23096988 -0.94000000
v 0.09088732 0.21942139 -0.91834936
v 0.08132023 0.19632440 -0.91834936
v 0.07653669 0.18477591 -0.94000000
v 0.08132023 0.19632440 -0.96165064
v 0.09088732 0.21942139 -0.96165064
v 0.00000000 0.25000000 -0.94000000
v 0.00000000 0.23750000 -0.91834936
v 0.00000000 0.21250000 -0.91834936
v 0.00000000 0.20000000 -0.94000000
v 0.00000000 0.21250000 -0.96165064
v 0.00000000 0.23750000 -0.96165064
v -0.09567086 0.23096988 -0.94000000
v -0.09088732 0.21942139 -0.91834936
v -0.08132023 0.19632440 -0.91834936
v -0.07653669 0.18477591 -0.94000000
v -0.08132023 0.19632440 -0.96165064
v -0.09088732 0.21942139 -0.96165064
v -0.17677670 0.17677670 -0.94000000
v -0.16793786 0.16793786 -0.91834936
v -0.15026019 0.15026019 -0.91834936
v -0.14142136 0.14142136 -0.94000000
v -0.15026019 0.15026019 -0.96165064
v -0.16793786 0.16793786 -0.96165064
v -0.23096988 0.09567086 -0.94000000
v -0.21942139 0.09088732 -0.91834936
v -0.19632440 0.08132023 -0.91834936
v -0.18477591 0.07653669 -0.94000000
v -0.19632440 0.08132023 -0.96165064
v -0.21942139 0.09088732 -0.96165064
v -0.25000000 0.00000000 -0.94000000
v -0.23750000 0.00000000 -0.91834936
v -0.21250000 0.00000000 -0.91834936
v -0.20000000 0.00000000 -0.94000000
v -0.21250000 0.00000000 -0.96165064
v -0.23750000 0.00000000 -0.96165064
v -0.23096988 -0.09567086 -0.94000000
v -0.21942139 -0.09088732 -0.91834936
v -0.19632440 -0.08132023 -0.91834936
v -0.18477591 -0.07653669 -0.94000000
v -0.19632440 -0.08132023 -0.96165064
v -0.21942139 -0.09088732 -0.96165064
v -0.17677670 -0.17677670 -0.94000000
v -0.16793786 -0.16793786 -0.91834936
v -0.15026019 -0.15026019 -0.91834936
v -0.14142136 -0.14142136 -0.94000000
v -0.15026019 -0.15026019 -0.96165064
v -0.16793786 -0.16793786 -0.96165064
v -0.09567086 -0.23096988 -0.94000000
v -0.09088732 -0.21942139 -0.91834936
v -0.08132023 -0.19632440 -0.91834936
v -0.07653669 -0.18477591 -0.94000000
v -0.08132023 -0.19632440 -0.96165064
v -0.09088732 -0.21942139 -0.96165064
v -0.00000000 -0.25000000 -0.94000000
v -0.00000000 -0.23750000 -0.91834936
v -0.00000000 -0.21250000 -0.91834936
v -0.00000000 -0.20000000 -0.94000000
v -0.00000000 -0.21250000 -0.96165064
v -0.00000000 -0.23750000 -0.96165064
v 0.09567086 -0.23096988 -0.94000000
v 0.09088732 -0.21942139 -0.91834936
v 0.08132023 -0.19632440 -0.91834936
v 0.07653669 -0.18477591 -0.94000000
v 0.08132023 -0.19632440 -0.96165064
v 0.09088732 -0.21942139 -0.96165064
v 0.17677670 -0.17677670 -0.94000000
v 0.16793786 -0.16793786 -0.91834936
v 0.15026019 -0.15026019 -0.91834936
v 0.14142136 -0.14142136 -0.94000000
v 0.15026019 -0.15026019 -0.96165064
v 0.16793786 -0.16793786 -0.96165064
v 0.23096988 -0.09567086 -0.94000000
v 0.21942139 -0.09088732 -0.91834936
v 0.19632440 -0.08132023 -0.91834936
v 0.18477591 -0.07653669 -0.94000000
v 0.19632440 -0.08132023 -0.96165064
v 0.21942139 -0.09088732 -0.96165064
f 645 651 646
f 646 651 652
f 646 652 647
f 647 652 653
f 647 653 648
f 648 653 654
f 648 654 649
f 649 654 655
f 649 655 650
f 650 655 656
f 650 656 645
f 645 656 651
f 651 657 652
f 652 657 658
f 652 658 653
f 653 658 659
f 653 659 654
f 654 659 660
f 654 660 655
f 655 660 661
f 655 661 656
f 656 661 662
f 656 662 651
f 651 662 657
f 657 663 658
f 658 663 664
f 658 664 659
f 659 664 665
f 659 665 660
f 660 665 666
f 660 666 661
f 661 666 667
f 661 667 662
f 662 667 668
f 662 668 657
f 657 668 663
f 663 669 664
f 664 669 670
f 664 670 665
f 665 670 671
f 665 671 666
f 666 671 672
f 666 672 667
f 667 672 673
f 667 673 668
f 668 673 674
f 668 674 663
f 663 674 669
f 669 675 670
f 670 675 676
f 670 676 671
f 671 676 677
f 671 677 672
f 672 677 678
f 672 678 673
f 673 678 679
f 673 679 674
f 674 679 680
f 674 680 669
f 669 680 675
f 675 681 676
f 676 681 682
f 676 682 677
f 677 682 683
f 677 683 678
f 678 683 684
f 678 684 679
f 679 684 685
f 679 685 680
f 680 685 686
f 680 686 675
f 675 686 681
f 681 687 682
f 682 687 688
f 682 688 683
f 683 688 689
f 683 689 684
f 684 689 690
f 684 690 685
f 685 690 691
f 685 691 686
f 686 691 692
f 686 692 681
f 681 692 687
f 687 693 688
f 688 693 694
f 688 694 689
f 689 694 695
f 689 695 690
f 690 695 696
f 690 696 691
f 691 696 697
f 691 697 692
f 692 697 698
f 692 698 687
f 687 698 693
f 693 699 694
f 694 699 700
f 694 700 695
f 695 700 701
f 695 701 696
f 696 701 702
f 696 702 697
f 697 702 703
f 697 703 698
f 698 703 704
f 698 704 693
f 693 704 699
f 699 705 700
f 700 705 706
f 700 706 701
f 701 706 707
f 701 707 702
f 702 707 708
f 702 708 703
f 703 708 709
f 703 709 704
f 704 709 710
f 704 710 699
f 699 710 705
f 705 711 706
f 706 711 712
f 706 712 707
f 707 712 713
f 707 713 708
f 708 713 714
f 708 714 709
f 709 714 715
f 709 715 710
f 710 715 716
f 710 716 705
f 705 716 711
f 711 717 712
f 712 717 718
f 712 718 713
f 713 718 719
f 713 719 714
f 714 719 720
f 714 720 715
f 715 720 721
f 715 721 716
f 716 721 722
f 716 722 711
f 711 722 717
f 717 723 718
f 718 723 724
f 718 724 719
f 719 724 725
f 719 725 720
f 720 725 726
f 720 726 721
f 721 726 727
f 721 727 722
f 722 727 728
f 722 728 717
f 717 728 723
f 723 729 724
f 724 729 730
f 724 730 725
f 725 730 731
f 725 731 726
f 726 731 732
f 726 732 727
f 727 732 733
f 727 733 728
f 728 733 734
f 728 734 723
f 723 734 729
f 729 735 730
f 730 735 736
f 730 736 731
f 731 736 737
f 731 737 732
f 732 737 738
f 732 738 733
f 733 738 739
f 733 739 734
f 734 739 740
f 734 740 729
f 729 740 735
f 735 645 736
f 736 645 646
f 736 646 737
f 737 646 647
f 737 647 738
f 738 647 648
f 738 648 739
f 739 648 649
f 739 649 740
f 740 649 650
f 740 650 735
f 735 650 645

o Grip_Wrap_4
v 0.25000000 0.00000000 -0.72000000
v 0.23750000 0.00000000 -0.69834936
v 0.21250000 0.00000000 -0.69834936
v 0.20000000 0.00000000 -0.72000000
v 0.21250000 0.00000000 -0.74165064
v 0.23750000 0.00000000 -0.74165064
v 0.23096988 0.09567086 -0.72000000
v 0.21942139 0.09088732 -0.69834936
v 0.19632440 0.08132023 -0.69834936
v 0.18477591 0.07653669 -0.72000000
v 0.19632440 0.08132023 -0.74165064
v 0.21942139 0.09088732 -0.74165064
v 0.17677670 0.17677670 -0.72000000
v 0.16793786 0.16793786 -0.69834936
v 0.15026019 0.15026019 -0.69834936
v 0.14142136 0.14142136 -0.72000000
v 0.15026019 0.15026019 -0.74165064
v 0.16793786 0.16793786 -0.74165064
v 0.09567086 0.23096988 -0.72000000
v 0.09088732 0.21942139 -0.69834936
v 0.08132023 0.19632440 -0.69834936
v 0.07653669 0.18477591 -0.72000000
v 0.08132023 0.19632440 -0.74165064
v 0.09088732 0.21942139 -0.74165064
v 0.00000000 0.25000000 -0.72000000
v 0.00000000 0.23750000 -0.69834936
v 0.00000000 0.21250000 -0.69834936
v 0.00000000 0.20000000 -0.72000000
v 0.00000000 0.21250000 -0.74165064
v 0.00000000 0.23750000 -0.74165064
v -0.09567086 0.23096988 -0.72000000
v -0.09088732 0.21942139 -0.69834936
v -0.08132023 0.19632440 -0.69834936
v -0.07653669 0.18477591 -0.72000000
v -0.08132023 0.19632440 -0.74165064
v -0.09088732 0.21942139 -0.74165064
v -0.17677670 0.17677670 -0.72000000
v -0.16793786 0.16793786 -0.69834936
v -0.15026019 0.15026019 -0.69834936
v -0.14142136 0.14142136 -0.72000000
v -0.15026019 0.15026019 -0.74165064
v -0.16793786 0.16793786 -0.74165064
v -0.23096988 0.09567086 -0.72000000
v -0.21942139 0.09088732 -0.69834936
v -0.19632440 0.08132023 -0.69834936
v -0.18477591 0.07653669 -0.72000000
v -0.19632440 0.08132023 -0.74165064
v -0.21942139 0.09088732 -0.74165064
v -0.25000000 0.00000000 -0.72000000
v -0.23750000 0.00000000 -0.69834936
v -0.21250000 0.00000000 -0.69834936
v -0.20000000 0.00000000 -0.72000000
v -0.21250000 0.00000000 -0.74165064
v -0.23750000 0.00000000 -0.74165064
v -0.23096988 -0.09567086 -0.72000000
v -0.21942139 -0.09088732 -0.69834936
v -0.19632440 -0.08132023 -0.69834936
v -0.18477591 -0.07653669 -0.72000000
v -0.19632440 -0.08132023 -0.74165064
v -0.21942139 -0.09088732 -0.74165064
v -0.17677670 -0.17677670 -0.72000000
v -0.16793786 -0.16793786 -0.69834936
v -0.15026019 -0.15026019 -0.69834936
v -0.14142136 -0.14142136 -0.72000000
v -0.15026019 -0.15026019 -0.74165064
v -0.16793786 -0.16793786 -0.74165064
v -0.09567086 -0.23096988 -0.72000000
v -0.09088732 -0.21942139 -0.69834936
v -0.08132023 -0.19632440 -0.69834936
v -0.07653669 -0.18477591 -0.72000000
v -0.08132023 -0.19632440 -0.74165064
v -0.09088732 -0.21942139 -0.74165064
v -0.00000000 -0.25000000 -0.72000000
v -0.00000000 -0.23750000 -0.69834936
v -0.00000000 -0.21250000 -0.69834936
v -0.00000000 -0.20000000 -0.72000000
v -0.00000000 -0.21250000 -0.74165064
v -0.00000000 -0.23750000 -0.74165064
v 0.09567086 -0.23096988 -0.72000000
v 0.09088732 -0.21942139 -0.69834936
v 0.08132023 -0.19632440 -0.69834936
v 0.07653669 -0.18477591 -0.72000000
v 0.08132023 -0.19632440 -0.74165064
v 0.09088732 -0.21942139 -0.74165064
v 0.17677670 -0.17677670 -0.72000000
v 0.16793786 -0.16793786 -0.69834936
v 0.15026019 -0.15026019 -0.69834936
v 0.14142136 -0.14142136 -0.72000000
v 0.15026019 -0.15026019 -0.74165064
v 0.16793786 -0.16793786 -0.74165064
v 0.23096988 -0.09567086 -0.72000000
v 0.21942139 -0.09088732 -0.69834936
v 0.19632440 -0.08132023 -0.69834936
v 0.18477591 -0.07653669 -0.72000000
v 0.19632440 -0.08132023 -0.74165064
v 0.21942139 -0.09088732 -0.74165064
f 741 747 742
f 742 747 748
f 742 748 743
f 743 748 749
f 743 749 744
f 744 749 750
f 744 750 745
f 745 750 751
f 745 751 746
f 746 751 752
f 746 752 741
f 741 752 747
f 747 753 748
f 748 753 754
f 748 754 749
f 749 754 755
f 749 755 750
f 750 755 756
f 750 756 751
f 751 756 757
f 751 757 752
f 752 757 758
f 752 758 747
f 747 758 753
f 753 759 754
f 754 759 760
f 754 760 755
f 755 760 761
f 755 761 756
f 756 761 762
f 756 762 757
f 757 762 763
f 757 763 758
f 758 763 764
f 758 764 753
f 753 764 759
f 759 765 760
f 760 765 766
f 760 766 761
f 761 766 767
f 761 767 762
f 762 767 768
f 762 768 763
f 763 768 769
f 763 769 764
f 764 769 770
f 764 770 759
f 759 770 765
f 765 771 766
f 766 771 772
f 766 772 767
f 767 772 773
f 767 773 768
f 768 773 774
f 768 774 769
f 769 774 775
f 769 775 770
f 770 775 776
f 770 776 765
f 765 776 771
f 771 777 772
f 772 777 778
f 772 778 773
f 773 778 779
f 773 779 774
f 774 779 780
f 774 780 775
f 775 780 781
f 775 781 776
f 776 781 782
f 776 782 771
f 771 782 777
f 777 783 778
f 778 783 784
f 778 784 779
f 779 784 785
f 779 785 780
f 780 785 786
f 780 786 781
f 781 786 787
f 781 787 782
f 782 787 788
f 782 788 777
f 777 788 783
f 783 789 784
f 784 789 790
f 784 790 785
f 785 790 791
f 785 791 786
f 786 791 792
f 786 792 787
f 787 792 793
f 787 793 788
f 788 793 794
f 788 794 783
f 783 794 789
f 789 795 790
f 790 795 796
f 790 796 791
f 791 796 797
f 791 797 792
f 792 797 798
f 792 798 793
f 793 798 799
f 793 799 794
f 794 799 800
f 794 800 789
f 789 800 795
f 795 801 796
f 796 801 802
f 796 802 797
f 797 802 803
f 797 803 798
f 798 803 804
f 798 804 799
f 799 804 805
f 799 805 800
f 800 805 806
f 800 806 795
f 795 806 801
f 801 807 802
f 802 807 808
f 802 808 803
f 803 808 809
f 803 809 804
f 804 809 810
f 804 810 805
f 805 810 811
f 805 811 806
f 806 811 812
f 806 812 801
f 801 812 807
f 807 813 808
f 808 813 814
f 808 814 809
f 809 814 815
f 809 815 810
f 810 815 816
f 810 816 811
f 811 816 817
f 811 817 812
f 812 817 818
f 812 818 807
f 807 818 813
f 813 819 814
f 814 819 820
f 814 820 815
f 815 820 821
f 815 821 816
f 816 821 822
f 816 822 817
f 817 822 823
f 817 823 818
f 818 823 824
f 818 824 813
f 813 824 819
f 819 825 820
f 820 825 826
f 820 826 821
f 821 826 827
f 821 827 822
f 822 827 828
f 822 828 823
f 823 828 829
f 823 829 824
f 824 829 830
f 824 830 819
f 819 830 825
f 825 831 826
f 826 831 832
f 826 832 827
f 827 832 833
f 827 833 828
f 828 833 834
f 828 834 829
f 829 834 835
f 829 835 830
f 830 835 836
f 830 836 825
f 825 836 831
f 831 741 832
f 832 741 742
f 832 742 833
f 833 742 743
f 833 743 834
f 834 743 744
f 834 744 835
f 835 744 745
f 835 745 836
f 836 745 746
f 836 746 831
f 831 746 741

o Grip_Wrap_5
v 0.25000000 0.00000000 -0.50000000
v 0.23750000 0.00000000 -0.47834936
v 0.21250000 0.00000000 -0.47834936
v 0.20000000 0.00000000 -0.50000000
v 0.21250000 0.00000000 -0.52165064
v 0.23750000 0.00000000 -0.52165064
v 0.23096988 0.09567086 -0.50000000
v 0.21942139 0.09088732 -0.47834936
v 0.19632440 0.08132023 -0.47834936
v 0.18477591 0.07653669 -0.50000000
v 0.19632440 0.08132023 -0.52165064
v 0.21942139 0.09088732 -0.52165064
v 0.17677670 0.17677670 -0.50000000
v 0.16793786 0.16793786 -0.47834936
v 0.15026019 0.15026019 -0.47834936
v 0.14142136 0.14142136 -0.50000000
v 0.15026019 0.15026019 -0.52165064
v 0.16793786 0.16793786 -0.52165064
v 0.09567086 0.23096988 -0.50000000
v 0.09088732 0.21942139 -0.47834936
v 0.08132023 0.19632440 -0.47834936
v 0.07653669 0.18477591 -0.50000000
v 0.08132023 0.19632440 -0.52165064
v 0.09088732 0.21942139 -0.52165064
v 0.00000000 0.25000000 -0.50000000
v 0.00000000 0.23750000 -0.47834936
v 0.00000000 0.21250000 -0.47834936
v 0.00000000 0.20000000 -0.50000000
v 0.00000000 0.21250000 -0.52165064
v 0.00000000 0.23750000 -0.52165064
v -0.09567086 0.23096988 -0.50000000
v -0.09088732 0.21942139 -0.47834936
v -0.08132023 0.19632440 -0.47834936
v -0.07653669 0.18477591 -0.50000000
v -0.08132023 0.19632440 -0.52165064
v -0.09088732 0.21942139 -0.52165064
v -0.17677670 0.17677670 -0.50000000
v -0.16793786 0.16793786 -0.47834936
v -0.15026019 0.15026019 -0.47834936
v -0.14142136 0.14142136 -0.50000000
v -0.15026019 0.15026019 -0.52165064
v -0.16793786 0.16793786 -0.52165064
v -0.23096988 0.09567086 -0.50000000
v -0.21942139 0.09088732 -0.47834936
v -0.19632440 0.08132023 -0.47834936
v -0.18477591 0.07653669 -0.50000000
v -0.19632440 0.08132023 -0.52165064
v -0.21942139 0.09088732 -0.52165064
v -0.25000000 0.00000000 -0.50000000
v -0.23750000 0.00000000 -0.47834936
v -0.21250000 0.00000000 -0.47834936
v -0.20000000 0.00000000 -0.50000000
v -0.21250000 0.00000000 -0.52165064
v -0.23750000 0.00000000 -0.52165064
v -0.23096988 -0.09567086 -0.50000000
v -0.21942139 -0.09088732 -0.47834936
v -0.19632440 -0.08132023 -0.47834936
v -0.18477591 -0.07653669 -0.50000000
v -0.19632440 -0.08132023 -0.52165064
v -0.21942139 -0.09088732 -0.52165064
v -0.17677670 -0.17677670 -0.50000000
v -0.16793786 -0.16793786 -0.47834936
v -0.15026019 -0.15026019 -0.47834936
v -0.14142136 -0.14142136 -0.50000000
v -0.15026019 -0.15026019 -0.52165064
v -0.16793786 -0.16793786 -0.52165064
v -0.09567086 -0.23096988 -0.50000000
v -0.09088732 -0.21942139 -0.47834936
v -0.08132023 -0.19632440 -0.47834936
v -0.07653669 -0.18477591 -0.50000000
v -0.08132023 -0.19632440 -0.52165064
v -0.09088732 -0.21942139 -0.52165064
v -0.00000000 -0.25000000 -0.50000000
v -0.00000000 -0.23750000 -0.47834936
v -0.00000000 -0.21250000 -0.47834936
v -0.00000000 -0.20000000 -0.50000000
v -0.00000000 -0.21250000 -0.52165064
v -0.00000000 -0.23750000 -0.52165064
v 0.09567086 -0.23096988 -0.50000000
v 0.09088732 -0.21942139 -0.47834936
v 0.08132023 -0.19632440 -0.47834936
v 0.07653669 -0.18477591 -0.50000000
v 0.08132023 -0.19632440 -0.52165064
v 0.09088732 -0.21942139 -0.52165064
v 0.17677670 -0.17677670 -0.50000000
v 0.16793786 -0.16793786 -0.47834936
v 0.15026019 -0.15026019 -0.47834936
v 0.14142136 -0.14142136 -0.50000000
v 0.15026019 -0.15026019 -0.52165064
v 0.16793786 -0.16793786 -0.52165064
v 0.23096988 -0.09567086 -0.50000000
v 0.21942139 -0.09088732 -0.47834936
v 0.19632440 -0.08132023 -0.47834936
v 0.18477591 -0.07653669 -0.50000000
v 0.19632440 -0.08132023 -0.52165064
v 0.21942139 -0.09088732 -0.52165064
f 837 843 838
f 838 843 844
f 838 844 839
f 839 844 845
f 839 845 840
f 840 845 846
f 840 846 841
f 841 846 847
f 841 847 842
f 842 847 848
f 842 848 837
f 837 848 843
f 843 849 844
f 844 849 850
f 844 850 845
f 845 850 851
f 845 851 846
f 846 851 852
f 846 852 847
f 847 852 853
f 847 853 848
f 848 853 854
f 848 854 843
f 843 854 849
f 849 855 850
f 850 855 856
f 850 856 851
f 851 856 857
f 851 857 852
f 852 857 858
f 852 858 853
f 853 858 859
f 853 859 854
f 854 859 860
f 854 860 849
f 849 860 855
f 855 861 856
f 856 861 862
f 856 862 857
f 857 862 863
f 857 863 858
f 858 863 864
f 858 864 859
f 859 864 865
f 859 865 860
f 860 865 866
f 860 866 855
f 855 866 861
f 861 867 862
f 862 867 868
f 862 868 863
f 863 868 869
f 863 869 864
f 864 869 870
f 864 870 865
f 865 870 871
f 865 871 866
f 866 871 872
f 866 872 861
f 861 872 867
f 867 873 868
f 868 873 874
f 868 874 869
f 869 874 875
f 869 875 870
f 870 875 876
f 870 876 871
f 871 876 877
f 871 877 872
f 872 877 878
f 872 878 867
f 867 878 873
f 873 879 874
f 874 879 880
f 874 880 875
f 875 880 881
f 875 881 876
f 876 881 882
f 876 882 877
f 877 882 883
f 877 883 878
f 878 883 884
f 878 884 873
f 873 884 879
f 879 885 880
f 880 885 886
f 880 886 881
f 881 886 887
f 881 887 882
f 882 887 888
f 882 888 883
f 883 888 889
f 883 889 884
f 884 889 890
f 884 890 879
f 879 890 885
f 885 891 886
f 886 891 892
f 886 892 887
f 887 892 893
f 887 893 888
f 888 893 894
f 888 894 889
f 889 894 895
f 889 895 890
f 890 895 896
f 890 896 885
f 885 896 891
f 891 897 892
f 892 897 898
f 892 898 893
f 893 898 899
f 893 899 894
f 894 899 900
f 894 900 895
f 895 900 901
f 895 901 896
f 896 901 902
f 896 902 891
f 891 902 897
f 897 903 898
f 898 903 904
f 898 904 899
f 899 904 905
f 899 905 900
f 900 905 906
f 900 906 901
f 901 906 907
f 901 907 902
f 902 907 908
f 902 908 897
f 897 908 903
f 903 909 904
f 904 909 910
f 904 910 905
f 905 910 911
f 905 911 906
f 906 911 912
f 906 912 907
f 907 912 913
f 907 913 908
f 908 913 914
f 908 914 903
f 903 914 909
f 909 915 910
f 910 915 916
f 910 916 911
f 911 916 917
f 911 917 912
f 912 917 918
f 912 918 913
f 913 918 919
f 913 919 914
f 914 919 920
f 914 920 909
f 909 920 915
f 915 921 916
f 916 921 922
f 916 922 917
f 917 922 923
f 917 923 918
f 918 923 924
f 918 924 919
f 919 924 925
f 919 925 920
f 920 925 926
f 920 926 915
f 915 926 921
f 921 927 922
f 922 927 928
f 922 928 923
f 923 928 929
f 923 929 924
f 924 929 930
f 924 930 925
f 925 930 931
f 925 931 926
f 926 931 932
f 926 932 921
f 921 932 927
f 927 837 928
f 928 837 838
f 928 838 929
f 929 838 839
f 929 839 930
f 930 839 840
f 930 840 931
f 931 840 841
f 931 841 932
f 932 841 842
f 932 842 927
f 927 842 837

o Grip_Wrap_6
v 0.25000000 0.00000000 -0.28000000
v 0.23750000 0.00000000 -0.25834936
v 0.21250000 0.00000000 -0.25834936
v 0.20000000 0.00000000 -0.28000000
v 0.21250000 0.00000000 -0.30165064
v 0.23750000 0.00000000 -0.30165064
v 0.23096988 0.09567086 -0.28000000
v 0.21942139 0.09088732 -0.25834936
v 0.19632440 0.08132023 -0.25834936
v 0.18477591 0.07653669 -0.28000000
v 0.19632440 0.08132023 -0.30165064
v 0.21942139 0.09088732 -0.30165064
v 0.17677670 0.17677670 -0.28000000
v 0.16793786 0.16793786 -0.25834936
v 0.15026019 0.15026019 -0.25834936
v 0.14142136 0.14142136 -0.28000000
v 0.15026019 0.15026019 -0.30165064
v 0.16793786 0.16793786 -0.30165064
v 0.09567086 0.23096988 -0.28000000
v 0.09088732 0.21942139 -0.25834936
v 0.08132023 0.19632440 -0.25834936
v 0.07653669 0.18477591 -0.28000000
v 0.08132023 0.19632440 -0.30165064
v 0.09088732 0.21942139 -0.30165064
v 0.00000000 0.25000000 -0.28000000
v 0.00000000 0.23750000 -0.25834936
v 0.00000000 0.21250000 -0.25834936
v 0.00000000 0.20000000 -0.28000000
v 0.00000000 0.21250000 -0.30165064
v 0.00000000 0.23750000 -0.30165064
v -0.09567086 0.23096988 -0.28000000
v -0.09088732 0.21942139 -0.25834936
v -0.08132023 0.19632440 -0.25834936
v -0.07653669 0.18477591 -0.28000000
v -0.08132023 0.19632440 -0.30165064
v -0.09088732 0.21942139 -0.30165064
v -0.17677670 0.17677670 -0.28000000
v -0.16793786 0.16793786 -0.25834936
v -0.15026019 0.15026019 -0.25834936
v -0.14142136 0.14142136 -0.28000000
v -0.15026019 0.15026019 -0.30165064
v -0.16793786 0.16793786 -0.30165064
v -0.23096988 0.09567086 -0.28000000
v -0.21942139 0.09088732 -0.25834936
v -0.19632440 0.08132023 -0.25834936
v -0.18477591 0.07653669 -0.28000000
v -0.19632440 0.08132023 -0.30165064
v -0.21942139 0.09088732 -0.30165064
v -0.25000000 0.00000000 -0.28000000
v -0.23750000 0.00000000 -0.25834936
v -0.21250000 0.00000000 -0.25834936
v -0.20000000 0.00000000 -0.28000000
v -0.21250000 0.00000000 -0.30165064
v -0.23750000 0.00000000 -0.30165064
v -0.23096988 -0.09567086 -0.28000000
v -0.21942139 -0.09088732 -0.25834936
v -0.19632440 -0.08132023 -0.25834936
v -0.18477591 -0.07653669 -0.28000000
v -0.19632440 -0.08132023 -0.30165064
v -0.21942139 -0.09088732 -0.30165064
v -0.17677670 -0.17677670 -0.28000000
v -0.16793786 -0.16793786 -0.25834936
v -0.15026019 -0.15026019 -0.25834936
v -0.14142136 -0.14142136 -0.28000000
v -0.15026019 -0.15026019 -0.30165064
v -0.16793786 -0.16793786 -0.30165064
v -0.09567086 -0.23096988 -0.28000000
v -0.09088732 -0.21942139 -0.25834936
v -0.08132023 -0.19632440 -0.25834936
v -0.07653669 -0.18477591 -0.28000000
v -0.08132023 -0.19632440 -0.30165064
v -0.09088732 -0.21942139 -0.30165064
v -0.00000000 -0.25000000 -0.28000000
v -0.00000000 -0.23750000 -0.25834936
v -0.00000000 -0.21250000 -0.25834936
v -0.00000000 -0.20000000 -0.28000000
v -0.00000000 -0.21250000 -0.30165064
v -0.00000000 -0.23750000 -0.30165064
v 0.09567086 -0.23096988 -0.28000000
v 0.09088732 -0.21942139 -0.25834936
v 0.08132023 -0.19632440 -0.25834936
v 0.07653669 -0.18477591 -0.28000000
v 0.08132023 -0.19632440 -0.30165064
v 0.09088732 -0.21942139 -0.30165064
v 0.17677670 -0.17677670 -0.28000000
v 0.16793786 -0.16793786 -0.25834936
v 0.15026019 -0.15026019 -0.25834936
v 0.14142136 -0.14142136 -0.28000000
v 0.15026019 -0.15026019 -0.30165064
v 0.16793786 -0.16793786 -0.30165064
v 0.23096988 -0.09567086 -0.28000000
v 0.21942139 -0.09088732 -0.25834936
v 0.19632440 -0.08132023 -0.25834936
v 0.18477591 -0.07653669 -0.28000000
v 0.19632440 -0.08132023 -0.30165064
v 0.21942139 -0.09088732 -0.30165064
f 933 939 934
f 934 939 940
f 934 940 935
f 935 940 941
f 935 941 936
f 936 941 942
f 936 942 937
f 937 942 943
f 937 943 938
f 938 943 944
f 938 944 933
f 933 944 939
f 939 945 940
f 940 945 946
f 940 946 941
f 941 946 947
f 941 947 942
f 942 947 948
f 942 948 943
f 943 948 949
f 943 949 944
f 944 949 950
f 944 950 939
f 939 950 945
f 945 951 946
f 946 951 952
f 946 952 947
f 947 952 953
f 947 953 948
f 948 953 954
f 948 954 949
f 949 954 955
f 949 955 950
f 950 955 956
f 950 956 945
f 945 956 951
f 951 957 952
f 952 957 958
f 952 958 953
f 953 958 959
f 953 959 954
f 954 959 960
f 954 960 955
f 955 960 961
f 955 961 956
f 956 961 962
f 956 962 951
f 951 962 957
f 957 963 958
f 958 963 964
f 958 964 959
f 959 964 965
f 959 965 960
f 960 965 966
f 960 966 961
f 961 966 967
f 961 967 962
f 962 967 968
f 962 968 957
f 957 968 963
f 963 969 964
f 964 969 970
f 964 970 965
f 965 970 971
f 965 971 966
f 966 971 972
f 966 972 967
f 967 972 973
f 967 973 968
f 968 973 974
f 968 974 963
f 963 974 969
f 969 975 970
f 970 975 976
f 970 976 971
f 971 976 977
f 971 977 972
f 972 977 978
f 972 978 973
f 973 978 979
f 973 979 974
f 974 979 980
f 974 980 969
f 969 980 975
f 975 981 976
f 976 981 982
f 976 982 977
f 977 982 983
f 977 983 978
f 978 983 984
f 978 984 979
f 979 984 985
f 979 985 980
f 980 985 986
f 980 986 975
f 975 986 981
f 981 987 982
f 982 987 988
f 982 988 983
f 983 988 989
f 983 989 984
f 984 989 990
f 984 990 985
f 985 990 991
f 985 991 986
f 986 991 992
f 986 992 981
f 981 992 987
f 987 993 988
f 988 993 994
f 988 994 989
f 989 994 995
f 989 995 990
f 990 995 996
f 990 996 991
f 991 996 997
f 991 997 992
f 992 997 998
f 992 998 987
f 987 998 993
f 993 999 994
f 994 999 1000
f 994 1000 995
f 995 1000 1001
f 995 1001 996
f 996 1001 1002
f 996 1002 997
f 997 1002 1003
f 997 1003 998
f 998 1003 1004
f 998 1004 993
f 993 1004 999
f 999 1005 1000
f 1000 1005 1006
f 1000 1006 1001
f 1001 1006 1007
f 1001 1007 1002
f 1002 1007 1008
f 1002 1008 1003
f 1003 1008 1009
f 1003 1009 1004
f 1004 1009 1010
f 1004 1010 999
f 999 1010 1005
f 1005 1011 1006
f 1006 1011 1012
f 1006 1012 1007
f 1007 1012 1013
f 1007 1013 1008
f 1008 1013 1014
f 1008 1014 1009
f 1009 1014 1015
f 1009 1015 1010
f 1010 1015 1016
f 1010 1016 1005
f 1005 1016 1011
f 1011 1017 1012
f 1012 1017 1018
f 1012 1018 1013
f 1013 1018 1019
f 1013 1019 1014
f 1014 1019 1020
f 1014 1020 1015
f 1015 1020 1021
f 1015 1021 1016
f 1016 1021 1022
f 1016 1022 1011
f 1011 1022 1017
f 1017 1023 1018
f 1018 1023 1024
f 1018 1024 1019
f 1019 1024 1025
f 1019 1025 1020
f 1020 1025 1026
f 1020 1026 1021
f 1021 1026 1027
f 1021 1027 1022
f 1022 1027 1028
f 1022 1028 1017
f 1017 1028 1023
f 1023 933 1024
f 1024 933 934
f 1024 934 1025
f 1025 934 935
f 1025 935 1026
f 1026 935 936
f 1026 936 1027
f 1027 936 937
f 1027 937 1028
f 1028 937 938
f 1028 938 1023
f 1023 938 933

o Pommel
v -0.17874858 0.28922127 0.00000000
v 0.17874858 0.28922127 0.00000000
v -0.17874858 -0.28922127 0.00000000
v 0.17874858 -0.28922127 0.00000000
v 0.00000000 -0.17874858 0.28922127
v 0.00000000 0.17874858 0.28922127
v 0.00000000 -0.17874858 -0.28922127
v 0.00000000 0.17874858 -0.28922127
v 0.28922127 0.00000000 -0.17874858
v 0.28922127 0.00000000 0.17874858
v -0.28922127 0.00000000 -0.17874858
v -0.28922127 0.00000000 0.17874858
v 0.00000000 0.34000000 0.00000000
v 0.00000000 -0.34000000 0.00000000
v -0.10506578 -0.27506578 0.17000000
v 0.10506578 -0.27506578 0.17000000
v -0.10506578 0.27506578 0.17000000
v 0.10506578 0.27506578 0.17000000
v 0.00000000 0.00000000 0.34000000
v -0.10506578 -0.27506578 -0.17000000
v 0.10506578 -0.27506578 -0.17000000
v -0.10506578 0.27506578 -0.17000000
v 0.10506578 0.27506578 -0.17000000
v 0.00000000 0.00000000 -0.34000000
v 0.27506578 0.17000000 -0.10506578
v 0.27506578 -0.17000000 -0.10506578
v 0.17000000 -0.10506578 -0.27506578
v 0.17000000 0.10506578 -0.27506578
v 0.27506578 0.17000000 0.10506578
v 0.27506578 -0.17000000 0.10506578
v 0.17000000 -0.10506578 0.27506578
v 0.17000000 0.10506578 0.27506578
v 0.34000000 0.00000000 0.00000000
v -0.27506578 0.17000000 -0.10506578
v -0.27506578 -0.17000000 -0.10506578
v -0.17000000 -0.10506578 -0.27506578
v -0.17000000 0.10506578 -0.27506578
v -0.27506578 0.17000000 0.10506578
v -0.27506578 -0.17000000 0.10506578
v -0.17000000 -0.10506578 0.27506578
v -0.17000000 0.10506578 0.27506578
v -0.34000000 0.00000000 0.00000000
v -0.09291062 0.32705904 0.00000000
v 0.09291062 0.32705904 0.00000000
v -0.09291062 -0.32705904 0.00000000
v 0.09291062 -0.32705904 0.00000000
v -0.14752211 -0.29330728 0.08836325
v -0.05461149 -0.23588536 0.23869579
v -0.05523635 -0.32335922 0.08937429
v 0.14752211 -0.29330728 0.08836325
v 0.05461149 -0.23588536 0.23869579
v 0.05523635 -0.32335922 0.08937429
v 0.00000000 -0.28922127 0.17874858
v -0.14752211 0.29330728 0.08836325
v -0.05461149 0.23588536 0.23869579
v -0.05523635 0.32335922 0.08937429
v 0.14752211 0.29330728 0.08836325
v 0.05461149 0.23588536 0.23869579
v 0.05523635 0.32335922 0.08937429
v 0.00000000 0.28922127 0.17874858
v 0.00000000 -0.09291062 0.32705904
v 0.00000000 0.09291062 0.32705904
v -0.14752211 -0.29330728 -0.08836325
v -0.05461149 -0.23588536 -0.23869579
v -0.05523635 -0.32335922 -0.08937429
v 0.14752211 -0.29330728 -0.08836325
v 0.05461149 -0.23588536 -0.23869579
v 0.05523635 -0.32335922 -0.08937429
v 0.00000000 -0.28922127 -0.17874858
v -0.14752211 0.29330728 -0.08836325
v -0.05461149 0.23588536 -0.23869579
v -0.05523635 0.32335922 -0.08937429
v 0.14752211 0.29330728 -0.08836325
v 0.05461149 0.23588536 -0.23869579
v 0.05523635 0.32335922 -0.08937429
v 0.00000000 0.28922127 -0.17874858
v 0.00000000 -0.09291062 -0.32705904
v 0.00000000 0.09291062 -0.32705904
v 0.23588536 0.23869579 -0.05461149
v 0.29330728 0.08836325 -0.14752211
v 0.19984699 0.23398493 -0.14461064
v 0.23588536 -0.23869579 -0.05461149
v 0.29330728 -0.08836325 -0.14752211
v 0.19984699 -0.23398493 -0.14461064
v 0.08836325 -0.14752211 -0.29330728
v 0.23869579 -0.05461149 -0.23588536
v 0.14461064 -0.19984699 -0.23398493
v 0.08937429 -0.05523635 -0.32335922
v 0.23398493 -0.14461064 -0.19984699
v 0.08836325 0.14752211 -0.29330728
v 0.23869579 0.05461149 -0.23588536
v 0.14461064 0.19984699 -0.23398493
v 0.08937429 0.05523635 -0.32335922
v 0.23398493 0.14461064 -0.19984699
v 0.17874858 0.00000000 -0.28922127
v 0.23588536 0.23869579 0.05461149
v 0.29330728 0.08836325 0.14752211
v 0.19984699 0.23398493 0.14461064
v 0.28922127 0.17874858 0.00000000
v 0.23588536 -0.23869579 0.05461149
v 0.29330728 -0.08836325 0.14752211
v 0.19984699 -0.23398493 0.14461064
v 0.28922127 -0.17874858 0.00000000
v 0.08836325 -0.14752211 0.29330728
v 0.23869579 -0.05461149 0.23588536
v 0.14461064 -0.19984699 0.23398493
v 0.08937429 -0.05523635 0.32335922
v 0.23398493 -0.14461064 0.19984699
v 0.08836325 0.14752211 0.29330728
v 0.23869579 0.05461149 0.23588536
v 0.14461064 0.19984699 0.23398493
v 0.08937429 0.05523635 0.32335922
v 0.23398493 0.14461064 0.19984699
v 0.17874858 0.00000000 0.28922127
v 0.32705904 0.00000000 -0.09291062
v 0.32705904 0.00000000 0.09291062
v 0.32335922 0.08937429 -0.05523635
v 0.32335922 -0.08937429 -0.05523635
v 0.32335922 0.08937429 0.05523635
v 0.32335922 -0.08937429 0.05523635
v -0.23588536 0.23869579 -0.05461149
v -0.29330728 0.08836325 -0.14752211
v -0.19984699 0.23398493 -0.14461064
v -0.23588536 -0.23869579 -0.05461149
v -0.29330728 -0.08836325 -0.14752211
v -0.19984699 -0.23398493 -0.14461064
v -0.08836325 -0.14752211 -0.29330728
v -0.23869579 -0.05461149 -0.23588536
v -0.14461064 -0.19984699 -0.23398493
v -0.08937429 -0.05523635 -0.32335922
v -0.23398493 -0.14461064 -0.19984699
v -0.08836325 0.14752211 -0.29330728
v -0.23869579 0.05461149 -0.23588536
v -0.14461064 0.19984699 -0.23398493
v -0.08937429 0.05523635 -0.32335922
v -0.23398493 0.14461064 -0.19984699
v -0.17874858 0.00000000 -0.28922127
v -0.23588536 0.23869579 0.05461149
v -0.29330728 0.08836325 0.14752211
v -0.19984699 0.23398493 0.14461064
v -0.28922127 0.17874858 0.00000000
v -0.23588536 -0.23869579 0.05461149
v -0.29330728 -0.08836325 0.14752211
v -0.19984699 -0.23398493 0.14461064
v -0.28922127 -0.17874858 0.00000000
v -0.08836325 -0.14752211 0.29330728
v -0.23869579 -0.05461149 0.23588536
v -0.14461064 -0.19984699 0.23398493
v -0.08937429 -0.05523635 0.32335922
v -0.23398493 -0.14461064 0.19984699
v -0.08836325 0.14752211 0.29330728
v -0.23869579 0.05461149 0.23588536
v -0.14461064 0.19984699 0.23398493
v -0.08937429 0.05523635 0.32335922
v -0.23398493 0.14461064 0.19984699
v -0.17874858 0.00000000 0.28922127
v -0.32705904 0.00000000 -0.09291062
v -0.32705904 0.00000000 0.09291062
v -0.32335922 0.08937429 -0.05523635
v -0.32335922 -0.08937429 -0.05523635
v -0.32335922 0.08937429 0.05523635
v -0.32335922 -0.08937429 0.05523635
f 1029 1166 1082
f 1166 1066 1168
f 1082 1168 1045
f 1166 1168 1082
f 1066 1167 1183
f 1167 1040 1180
f 1183 1180 1069
f 1167 1180 1183
f 1045 1181 1083
f 1181 1069 1179
f 1083 1179 1034
f 1181 1179 1083
f 1066 1183 1168
f 1183 1069 1181
f 1168 1181 1045
f 1183 1181 1168
f 1029 1082 1071
f 1082 1045 1084
f 1071 1084 1041
f 1082 1084 1071
f 1045 1083 1088
f 1083 1034 1086
f 1088 1086 1046
f 1083 1086 1088
f 1041 1087 1072
f 1087 1046 1085
f 1072 1085 1030
f 1087 1085 1072
f 1045 1088 1084
f 1088 1046 1087
f 1084 1087 1041
f 1088 1087 1084
f 1029 1071 1098
f 1071 1041 1100
f 1098 1100 1050
f 1071 1100 1098
f 1041 1072 1103
f 1072 1030 1101
f 1103 1101 1051
f 1072 1101 1103
f 1050 1104 1099
f 1104 1051 1102
f 1099 1102 1036
f 1104 1102 1099
f 1041 1103 1100
f 1103 1051 1104
f 1100 1104 1050
f 1103 1104 1100
f 1029 1098 1149
f 1098 1050 1151
f 1149 1151 1062
f 1098 1151 1149
f 1050 1099 1162
f 1099 1036 1160
f 1162 1160 1065
f 1099 1160 1162
f 1062 1164 1150
f 1164 1065 1161
f 1150 1161 1039
f 1164 1161 1150
f 1050 1162 1151
f 1162 1065 1164
f 1151 1164 1062
f 1162 1164 1151
f 1029 1149 1166
f 1149 1062 1169
f 1166 1169 1066
f 1149 1169 1166
f 1062 1150 1187
f 1150 1039 1185
f 1187 1185 1070
f 1150 1185 1187
f 1066 1189 1167
f 1189 1070 1186
f 1167 1186 1040
f 1189 1186 1167
f 1062 1187 1169
f 1187 1070 1189
f 1169 1189 1066
f 1187 1189 1169
f 1030 1085 1124
f 1085 1046 1126
f 1124 1126 1057
f 1085 1126 1124
f 1046 1086 1139
f 1086 1034 1137
f 1139 1137 1060
f 1086 1137 1139
f 1057 1141 1125
f 1141 1060 1138
f 1125 1138 1038
f 1141 1138 1125
f 1046 1139 1126
f 1139 1060 1141
f 1126 1141 1057
f 1139 1141 1126
f 1034 1179 1090
f 1179 1069 1182
f 1090 1182 1047
f 1179 1182 1090
f 1069 1180 1184
f 1180 1040 1175
f 1184 1175 1068
f 1180 1175 1184
f 1047 1177 1089
f 1177 1068 1174
f 1089 1174 1033
f 1177 1174 1089
f 1069 1184 1182
f 1184 1068 1177
f 1182 1177 1047
f 1184 1177 1182
f 1040 1186 1171
f 1186 1070 1190
f 1171 1190 1067
f 1186 1190 1171
f 1070 1185 1188
f 1185 1039 1153
f 1188 1153 1063
f 1185 1153 1188
f 1067 1173 1170
f 1173 1063 1152
f 1170 1152 1031
f 1173 1152 1170
f 1070 1188 1190
f 1188 1063 1173
f 1190 1173 1067
f 1188 1173 1190
f 1039 1161 1156
f 1161 1065 1165
f 1156 1165 1064
f 1161 1165 1156
f 1065 1160 1163
f 1160 1036 1106
f 1163 1106 1052
f 1160 1106 1163
f 1064 1158 1155
f 1158 1052 1105
f 1155 1105 1035
f 1158 1105 1155
f 1065 1163 1165
f 1163 1052 1158
f 1165 1158 1064
f 1163 1158 1165
f 1036 1102 1118
f 1102 1051 1120
f 1118 1120 1056
f 1102 1120 1118
f 1051 1101 1109
f 1101 1030 1107
f 1109 1107 1053
f 1101 1107 1109
f 1056 1122 1119
f 1122 1053 1108
f 1119 1108 1037
f 1122 1108 1119
f 1051 1109 1120
f 1109 1053 1122
f 1120 1122 1056
f 1109 1122 1120
f 1032 1128 1078
f 1128 1058 1130
f 1078 1130 1044
f 1128 1130 1078
f 1058 1129 1136
f 1129 1038 1133
f 1136 1133 1059
f 1129 1133 1136
f 1044 1134 1079
f 1134 1059 1132
f 1079 1132 1033
f 1134 1132 1079
f 1058 1136 1130
f 1136 1059 1134
f 1130 1134 1044
f 1136 1134 1130
f 1032 1078 1074
f 1078 1044 1080
f 1074 1080 1042
f 1078 1080 1074
f 1044 1079 1081
f 1079 1033 1076
f 1081 1076 1043
f 1079 1076 1081
f 1042 1077 1073
f 1077 1043 1075
f 1073 1075 1031
f 1077 1075 1073
f 1044 1081 1080
f 1081 1043 1077
f 1080 1077 1042
f 1081 1077 1080
f 1032 1074 1094
f 1074 1042 1096
f 1094 1096 1049
f 1074 1096 1094
f 1042 1073 1093
f 1073 1031 1091
f 1093 1091 1048
f 1073 1091 1093
f 1049 1097 1095
f 1097 1048 1092
f 1095 1092 1035
f 1097 1092 1095
f 1042 1093 1096
f 1093 1048 1097
f 1096 1097 1049
f 1093 1097 1096
f 1032 1094 1110
f 1094 1049 1112
f 1110 1112 1054
f 1094 1112 1110
f 1049 1095 1115
f 1095 1035 1113
f 1115 1113 1055
f 1095 1113 1115
f 1054 1117 1111
f 1117 1055 1114
f 1111 1114 1037
f 1117 1114 1111
f 1049 1115 1112
f 1115 1055 1117
f 1112 1117 1054
f 1115 1117 1112
f 1032 1110 1128
f 1110 1054 1131
f 1128 1131 1058
f 1110 1131 1128
f 1054 1111 1146
f 1111 1037 1143
f 1146 1143 1061
f 1111 1143 1146
f 1058 1148 1129
f 1148 1061 1144
f 1129 1144 1038
f 1148 1144 1129
f 1054 1146 1131
f 1146 1061 1148
f 1131 1148 1058
f 1146 1148 1131
f 1033 1132 1089
f 1132 1059 1135
f 1089 1135 1047
f 1132 1135 1089
f 1059 1133 1142
f 1133 1038 1138
f 1142 1138 1060
f 1133 1138 1142
f 1047 1140 1090
f 1140 1060 1137
f 1090 1137 1034
f 1140 1137 1090
f 1059 1142 1135
f 1142 1060 1140
f 1135 1140 1047
f 1142 1140 1135
f 1031 1075 1170
f 1075 1043 1172
f 1170 1172 1067
f 1075 1172 1170
f 1043 1076 1176
f 1076 1033 1174
f 1176 1174 1068
f 1076 1174 1176
f 1067 1178 1171
f 1178 1068 1175
f 1171 1175 1040
f 1178 1175 1171
f 1043 1176 1172
f 1176 1068 1178
f 1172 1178 1067
f 1176 1178 1172
f 1035 1092 1155
f 1092 1048 1157
f 1155 1157 1064
f 1092 1157 1155
f 1048 1091 1154
f 1091 1031 1152
f 1154 1152 1063
f 1091 1152 1154
f 1064 1159 1156
f 1159 1063 1153
f 1156 1153 1039
f 1159 1153 1156
f 1048 1154 1157
f 1154 1063 1159
f 1157 1159 1064
f 1154 1159 1157
f 1037 1114 1119
f 1114 1055 1123
f 1119 1123 1056
f 1114 1123 1119
f 1055 1113 1116
f 1113 1035 1105
f 1116 1105 1052
f 1113 1105 1116
f 1056 1121 1118
f 1121 1052 1106
f 1118 1106 1036
f 1121 1106 1118
f 1055 1116 1123
f 1116 1052 1121
f 1123 1121 1056
f 1116 1121 1123
f 1038 1144 1125
f 1144 1061 1147
f 1125 1147 1057
f 1144 1147 1125
f 1061 1143 1145
f 1143 1037 1108
f 1145 1108 1053
f 1143 1108 1145
f 1057 1127 1124
f 1127 1053 1107
f 1124 1107 1030
f 1127 1107 1124
f 1061 1145 1147
f 1145 1053 1127
f 1147 1127 1057
f 1145 1127 1147

o Pommel_Gem
v -0.08411698 0.13610413 0.00000000
v 0.08411698 0.13610413 0.00000000
v -0.08411698 -0.13610413 0.00000000
v 0.08411698 -0.13610413 0.00000000
v 0.00000000 -0.08411698 0.13610413
v 0.00000000 0.08411698 0.13610413
v 0.00000000 -0.08411698 -0.13610413
v 0.00000000 0.08411698 -0.13610413
v 0.13610413 0.00000000 -0.08411698
v 0.13610413 0.00000000 0.08411698
v -0.13610413 0.00000000 -0.08411698
v -0.13610413 0.00000000 0.08411698
v 0.00000000 0.16000000 0.00000000
v 0.00000000 -0.16000000 0.00000000
v -0.04944272 -0.12944272 0.08000000
v 0.04944272 -0.12944272 0.08000000
v -0.04944272 0.12944272 0.08000000
v 0.04944272 0.12944272 0.08000000
v 0.00000000 0.00000000 0.16000000
v -0.04944272 -0.12944272 -0.08000000
v 0.04944272 -0.12944272 -0.08000000
v -0.04944272 0.12944272 -0.08000000
v 0.04944272 0.12944272 -0.08000000
v 0.00000000 0.00000000 -0.16000000
v 0.12944272 0.08000000 -0.04944272
v 0.12944272 -0.08000000 -0.04944272
v 0.08000000 -0.04944272 -0.12944272
v 0.08000000 0.04944272 -0.12944272
v 0.12944272 0.08000000 0.04944272
v 0.12944272 -0.08000000 0.04944272
v 0.08000000 -0.04944272 0.12944272
v 0.08000000 0.04944272 0.12944272
v 0.16000000 0.00000000 0.00000000
v -0.12944272 0.08000000 -0.04944272
v -0.12944272 -0.08000000 -0.04944272
v -0.08000000 -0.04944272 -0.12944272
v -0.08000000 0.04944272 -0.12944272
v -0.12944272 0.08000000 0.04944272
v -0.12944272 -0.08000000 0.04944272
v -0.08000000 -0.04944272 0.12944272
v -0.08000000 0.04944272 0.12944272
v -0.16000000 0.00000000 0.00000000
v -0.04372264 0.15391014 0.00000000
v 0.04372264 0.15391014 0.00000000
v -0.04372264 -0.15391014 0.00000000
v 0.04372264 -0.15391014 0.00000000
v -0.06942217 -0.13802696 0.04158271
v -0.02569953 -0.11100488 0.11232743
v -0.02599358 -0.15216904 0.04205849
v 0.06942217 -0.13802696 0.04158271
v 0.02569953 -0.11100488 0.11232743
v 0.02599358 -0.15216904 0.04205849
v 0.00000000 -0.13610413 0.08411698
v -0.06942217 0.13802696 0.04158271
v -0.02569953 0.11100488 0.11232743
v -0.02599358 0.15216904 0.04205849
v 0.06942217 0.13802696 0.04158271
v 0.02569953 0.11100488 0.11232743
v 0.02599358 0.15216904 0.04205849
v 0.00000000 0.13610413 0.08411698
v 0.00000000 -0.04372264 0.15391014
v 0.00000000 0.04372264 0.15391014
v -0.06942217 -0.13802696 -0.04158271
v -0.02569953 -0.11100488 -0.11232743
v -0.02599358 -0.15216904 -0.04205849
v 0.06942217 -0.13802696 -0.04158271
v 0.02569953 -0.11100488 -0.11232743
v 0.02599358 -0.15216904 -0.04205849
v 0.00000000 -0.13610413 -0.08411698
v -0.06942217 0.13802696 -0.04158271
v -0.02569953 0.11100488 -0.11232743
v -0.02599358 0.15216904 -0.04205849
v 0.06942217 0.13802696 -0.04158271
v 0.02569953 0.11100488 -0.11232743
v 0.02599358 0.15216904 -0.04205849
v 0.00000000 0.13610413 -0.08411698
v 0.00000000 -0.04372264 -0.15391014
v 0.00000000 0.04372264 -0.15391014
v 0.11100488 0.11232743 -0.02569953
v 0.13802696 0.04158271 -0.06942217
v 0.09404564 0.11011055 -0.06805206
v 0.11100488 -0.11232743 -0.02569953
v 0.13802696 -0.04158271 -0.06942217
v 0.09404564 -0.11011055 -0.06805206
v 0.04158271 -0.06942217 -0.13802696
v 0.11232743 -0.02569953 -0.11100488
v 0.06805206 -0.09404564 -0.11011055
v 0.04205849 -0.02599358 -0.15216904
v 0.11011055 -0.06805206 -0.09404564
v 0.04158271 0.06942217 -0.13802696
v 0.11232743 0.02569953 -0.11100488
v 0.06805206 0.09404564 -0.11011055
v 0.04205849 0.02599358 -0.15216904
v 0.11011055 0.06805206 -0.09404564
v 0.08411698 0.00000000 -0.13610413
v 0.11100488 0.11232743 0.02569953
v 0.13802696 0.04158271 0.06942217
v 0.09404564 0.11011055 0.06805206
v 0.13610413 0.08411698 0.00000000
v 0.11100488 -0.11232743 0.02569953
v 0.13802696 -0.04158271 0.06942217
v 0.09404564 -0.11011055 0.06805206
v 0.13610413 -0.08411698 0.00000000
v 0.04158271 -0.06942217 0.13802696
v 0.11232743 -0.02569953 0.11100488
v 0.06805206 -0.09404564 0.11011055
v 0.04205849 -0.02599358 0.15216904
v 0.11011055 -0.06805206 0.09404564
v 0.04158271 0.06942217 0.13802696
v 0.11232743 0.02569953 0.11100488
v 0.06805206 0.09404564 0.11011055
v 0.04205849 0.02599358 0.15216904
v 0.11011055 0.06805206 0.09404564
v 0.08411698 0.00000000 0.13610413
v 0.15391014 0.00000000 -0.04372264
v 0.15391014 0.00000000 0.04372264
v 0.15216904 0.04205849 -0.02599358
v 0.15216904 -0.04205849 -0.02599358
v 0.15216904 0.04205849 0.02599358
v 0.15216904 -0.04205849 0.02599358
v -0.11100488 0.11232743 -0.02569953
v -0.13802696 0.04158271 -0.06942217
v -0.09404564 0.11011055 -0.06805206
v -0.11100488 -0.11232743 -0.02569953
v -0.13802696 -0.04158271 -0.06942217
v -0.09404564 -0.11011055 -0.06805206
v -0.04158271 -0.06942217 -0.13802696
v -0.11232743 -0.02569953 -0.11100488
v -0.06805206 -0.09404564 -0.11011055
v -0.04205849 -0.02599358 -0.15216904
v -0.11011055 -0.06805206 -0.09404564
v -0.04158271 0.06942217 -0.13802696
v -0.11232743 0.02569953 -0.11100488
v -0.06805206 0.09404564 -0.11011055
v -0.04205849 0.02599358 -0.15216904
v -0.11011055 0.06805206 -0.09404564
v -0.08411698 0.00000000 -0.13610413
v -0.11100488 0.11232743 0.02569953
v -0.13802696 0.04158271 0.06942217
v -0.09404564 0.11011055 0.06805206
v -0.13610413 0.08411698 0.00000000
v -0.11100488 -0.11232743 0.02569953
v -0.13802696 -0.04158271 0.06942217
v -0.09404564 -0.11011055 0.06805206
v -0.13610413 -0.08411698 0.00000000
v -0.04158271 -0.06942217 0.13802696
v -0.11232743 -0.02569953 0.11100488
v -0.06805206 -0.09404564 0.11011055
v -0.04205849 -0.02599358 0.15216904
v -0.11011055 -0.06805206 0.09404564
v -0.04158271 0.06942217 0.13802696
v -0.11232743 0.02569953 0.11100488
v -0.06805206 0.09404564 0.11011055
v -0.04205849 0.02599358 0.15216904
v -0.11011055 0.06805206 0.09404564
v -0.08411698 0.00000000 0.13610413
v -0.15391014 0.00000000 -0.04372264
v -0.15391014 0.00000000 0.04372264
v -0.15216904 0.04205849 -0.02599358
v -0.15216904 -0.04205849 -0.02599358
v -0.15216904 0.04205849 0.02599358
v -0.15216904 -0.04205849 0.02599358
f 1191 1328 1244
f 1328 1228 1330
f 1244 1330 1207
f 1328 1330 1244
f 1228 1329 1345
f 1329 1202 1342
f 1345 1342 1231
f 1329 1342 1345
f 1207 1343 1245
f 1343 1231 1341
f 1245 1341 1196
f 1343 1341 1245
f 1228 1345 1330
f 1345 1231 1343
f 1330 1343 1207
f 1345 1343 1330
f 1191 1244 1233
f 1244 1207 1246
f 1233 1246 1203
f 1244 1246 1233
f 1207 1245 1250
f 1245 1196 1248
f 1250 1248 1208
f 1245 1248 1250
f 1203 1249 1234
f 1249 1208 1247
f 1234 1247 1192
f 1249 1247 1234
f 1207 1250 1246
f 1250 1208 1249
f 1246 1249 1203
f 1250 1249 1246
f 1191 1233 1260
f 1233 1203 1262
f 1260 1262 1212
f 1233 1262 1260
f 1203 1234 1265
f 1234 1192 1263
f 1265 1263 1213
f 1234 1263 1265
f 1212 1266 1261
f 1266 1213 1264
f 1261 1264 1198
f 1266 1264 1261
f 1203 1265 1262
f 1265 1213 1266
f 1262 1266 1212
f 1265 1266 1262
f 1191 1260 1311
f 1260 1212 1313
f 1311 1313 1224
f 1260 1313 1311
f 1212 1261 1324
f 1261 1198 1322
f 1324 1322 1227
f 1261 1322 1324
f 1224 1326 1312
f 1326 1227 1323
f 1312 1323 1201
f 1326 1323 1312
f 1212 1324 1313
f 1324 1227 1326
f 1313 1326 1224
f 1324 1326 1313
f 1191 1311 1328
f 1311 1224 1331
f 1328 1331 1228
f 1311 1331 1328
f 1224 1312 1349
f 1312 1201 1347
f 1349 1347 1232
f 1312 1347 1349
f 1228 1351 1329
f 1351 1232 1348
f 1329 1348 1202
f 1351 1348 1329
f 1224 1349 1331
f 1349 1232 1351
f 1331 1351 1228
f 1349 1351 1331
f 1192 1247 1286
f 1247 1208 1288
f 1286 1288 1219
f 1247 1288 1286
f 1208 1248 1301
f 1248 1196 1299
f 1301 1299 1222
f 1248 1299 1301
f 1219 1303 1287
f 1303 1222 1300
f 1287 1300 1200
f 1303 1300 1287
f 1208 1301 1288
f 1301 1222 1303
f 1288 1303 1219
f 1301 1303 1288
f 1196 1341 1252
f 1341 1231 1344
f 1252 1344 1209
f 1341 1344 1252
f 1231 1342 1346
f 1342 1202 1337
f 1346 1337 1230
f 1342 1337 1346
f 1209 1339 1251
f 1339 1230 1336
f 1251 1336 1195
f 1339 1336 1251
f 1231 1346 1344
f 1346 1230 1339
f 1344 1339 1209
f 1346 1339 1344
f 1202 1348 1333
f 1348 1232 1352
f 1333 1352 1229
f 1348 1352 1333
f 1232 1347 1350
f 1347 1201 1315
f 1350 1315 1225
f 1347 1315 1350
f 1229 1335 1332
f 1335 1225 1314
f 1332 1314 1193
f 1335 1314 1332
f 1232 1350 1352
f 1350 1225 1335
f 1352 1335 1229
f 1350 1335 1352
f 1201 1323 1318
f 1323 1227 1327
f 1318 1327 1226
f 1323 1327 1318
f 1227 1322 1325
f 1322 1198 1268
f 1325 1268 1214
f 1322 1268 1325
f 1226 1320 1317
f 1320 1214 1267
f 1317 1267 1197
f 1320 1267 1317
f 1227 1325 1327
f 1325 1214 1320
f 1327 1320 1226
f 1325 1320 1327
f 1198 1264 1280
f 1264 1213 1282
f 1280 1282 1218
f 1264 1282 1280
f 1213 1263 1271
f 1263 1192 1269
f 1271 1269 1215
f 1263 1269 1271
f 1218 1284 1281
f 1284 1215 1270
f 1281 1270 1199
f 1284 1270 1281
f 1213 1271 1282
f 1271 1215 1284
f 1282 1284 1218
f 1271 1284 1282
f 1194 1290 1240
f 1290 1220 1292
f 1240 1292 1206
f 1290 1292 1240
f 1220 1291 1298
f 1291 1200 1295
f 1298 1295 1221
f 1291 1295 1298
f 1206 1296 1241
f 1296 1221 1294
f 1241 1294 1195
f 1296 1294 1241
f 1220 1298 1292
f 1298 1221 1296
f 1292 1296 1206
f 1298 1296 1292
f 1194 1240 1236
f 1240 1206 1242
f 1236 1242 1204
f 1240 1242 1236
f 1206 1241 1243
f 1241 1195 1238
f 1243 1238 1205
f 1241 1238 1243
f 1204 1239 1235
f 1239 1205 1237
f 1235 1237 1193
f 1239 1237 1235
f 1206 1243 1242
f 1243 1205 1239
f 1242 1239 1204
f 1243 1239 1242
f 1194 1236 1256
f 1236 1204 1258
f 1256 1258 1211
f 1236 1258 1256
f 1204 1235 1255
f 1235 1193 1253
f 1255 1253 1210
f 1235 1253 1255
f 1211 1259 1257
f 1259 1210 1254
f 1257 1254 1197
f 1259 1254 1257
f 1204 1255 1258
f 1255 1210 1259
f 1258 1259 1211
f 1255 1259 1258
f 1194 1256 1272
f 1256 1211 1274
f 1272 1274 1216
f 1256 1274 1272
f 1211 1257 1277
f 1257 1197 1275
f 1277 1275 1217
f 1257 1275 1277
f 1216 1279 1273
f 1279 1217 1276
f 1273 1276 1199
f 1279 1276 1273
f 1211 1277 1274
f 1277 1217 1279
f 1274 1279 1216
f 1277 1279 1274
f 1194 1272 1290
f 1272 1216 1293
f 1290 1293 1220
f 1272 1293 1290
f 1216 1273 1308
f 1273 1199 1305
f 1308 1305 1223
f 1273 1305 1308
f 1220 1310 1291
f 1310 1223 1306
f 1291 1306 1200
f 1310 1306 1291
f 1216 1308 1293
f 1308 1223 1310
f 1293 1310 1220
f 1308 1310 1293
f 1195 1294 1251
f 1294 1221 1297
f 1251 1297 1209
f 1294 1297 1251
f 1221 1295 1304
f 1295 1200 1300
f 1304 1300 1222
f 1295 1300 1304
f 1209 1302 1252
f 1302 1222 1299
f 1252 1299 1196
f 1302 1299 1252
f 1221 1304 1297
f 1304 1222 1302
f 1297 1302 1209
f 1304 1302 1297
f 1193 1237 1332
f 1237 1205 1334
f 1332 1334 1229
f 1237 1334 1332
f 1205 1238 1338
f 1238 1195 1336
f 1338 1336 1230
f 1238 1336 1338
f 1229 1340 1333
f 1340 1230 1337
f 1333 1337 1202
f 1340 1337 1333
f 1205 1338 1334
f 1338 1230 1340
f 1334 1340 1229
f 1338 1340 1334
f 1197 1254 1317
f 1254 1210 1319
f 1317 1319 1226
f 1254 1319 1317
f 1210 1253 1316
f 1253 1193 1314
f 1316 1314 1225
f 1253 1314 1316
f 1226 1321 1318
f 1321 1225 1315
f 1318 1315 1201
f 1321 1315 1318
f 1210 1316 1319
f 1316 1225 1321
f 1319 1321 1226
f 1316 1321 1319
f 1199 1276 1281
f 1276 1217 1285
f 1281 1285 1218
f 1276 1285 1281
f 1217 1275 1278
f 1275 1197 1267
f 1278 1267 1214
f 1275 1267 1278
f 1218 1283 1280
f 1283 1214 1268
f 1280 1268 1198
f 1283 1268 1280
f 1217 1278 1285
f 1278 1214 1283
f 1285 1283 1218
f 1278 1283 1285
f 1200 1306 1287
f 1306 1223 1309
f 1287 1309 1219
f 1306 1309 1287
f 1223 1305 1307
f 1305 1199 1270
f 1307 1270 1215
f 1305 1270 1307
f 1219 1289 1286
f 1289 1215 1269
f 1286 1269 1192
f 1289 1269 1286
f 1223 1307 1309
f 1307 1215 1289
f 1309 1289 1219
f 1307 1289 1309

